<?xml version="1.0" encoding="UTF-8"?>
<svg version="1.1" xmlns="http://www.w3.org/2000/svg" width="877" height="513">
<path d="M0 0 C289.41 0 578.82 0 877 0 C877 169.29 877 338.58 877 513 C587.59 513 298.18 513 0 513 C0 343.71 0 174.42 0 0 Z " fill="#0C080C" transform="translate(0,0)"/>
<path d="M0 0 C3.61533223 2.75778712 6.84298018 5.73189986 10 9 C10.57234375 9.58652344 11.1446875 10.17304687 11.734375 10.77734375 C16.62666192 16.13616319 21.29788144 22.51527472 22.7421875 29.68359375 C23.15726563 30.77800781 23.57234375 31.87242188 24 33 C27.10037691 34.50677557 27.10037691 34.50677557 30.875 35.0625 C46.48817671 38.45691333 60.1715597 47.17209338 69.07617188 60.62597656 C75.83598093 71.46456523 79.39748928 82.48341724 78.78540039 95.39038086 C78.29646916 101.59954444 78.29646916 101.59954444 80.5234375 107.2109375 C82.54645559 108.9102926 82.54645559 108.9102926 84.77734375 110.38671875 C94.32164507 117.31430477 100.2927664 132.14185755 102.52734375 143.328125 C104.76295835 160.69570948 103.07584349 178.20537913 93 193 C90.90645933 195.66416277 88.77708937 198.26461939 86.5390625 200.80859375 C84.61684376 203.09924876 84.61684376 203.09924876 85 207 C85.80248217 208.99187538 86.64113894 210.96927674 87.5 212.9375 C89.85195921 219.31852569 90.49518298 224.96341669 90.5 231.75 C90.50580078 232.61230225 90.51160156 233.47460449 90.51757812 234.36303711 C90.22046622 249.9331864 82.76865085 264.5008804 71.89453125 275.375 C63.72635844 282.78257372 50.49508547 291.63064846 39.125 292.125 C38.42375 292.08375 37.7225 292.0425 37 292 C36.89300781 293.01964844 36.78601563 294.03929687 36.67578125 295.08984375 C34.09776132 310.00659492 22.57273968 323.27246237 10.6875 332 C-4.78334132 341.97339951 -23.70270954 347.06736075 -42.0546875 343.61328125 C-53.58129178 340.57356493 -60.30564676 333.74563188 -66.45703125 323.94140625 C-70.45768467 316.31484416 -71.44177477 310.35083635 -71.40405273 301.82983398 C-71.41091599 300.73775635 -71.41777924 299.64567871 -71.42485046 298.52050781 C-71.44307644 294.92890234 -71.43928755 291.33773532 -71.43359375 287.74609375 C-71.43815679 285.24080768 -71.44346273 282.73552287 -71.44947815 280.23023987 C-71.45840043 274.98751867 -71.45623036 269.74491048 -71.44604492 264.50219727 C-71.43455506 258.45467813 -71.4486621 252.40760203 -71.4754414 246.36014122 C-71.50031393 240.52311738 -71.50276947 234.68626535 -71.49632454 228.8491993 C-71.49617129 226.37370122 -71.50221831 223.89819462 -71.51461601 221.42272758 C-71.52951109 217.96174082 -71.51885937 214.50172799 -71.50170898 211.04077148 C-71.51621094 209.51242424 -71.51621094 209.51242424 -71.53100586 207.95320129 C-71.46678974 201.75721726 -70.63160527 198.06792081 -67 193 C-62.21274871 188.64795337 -57.45607021 188.7038114 -51.25 188.80078125 C-40.24800519 189.47518237 -33.30185213 193.95708396 -25 201 C-24.29488281 201.56847656 -23.58976563 202.13695312 -22.86328125 202.72265625 C-17.47256508 207.48192194 -15.50976379 213.40555354 -13 220 C-9.63527762 228.29248955 -5.11757013 235.15216563 3.265625 239.0546875 C5.49415019 239.81051598 7.71960679 240.42110087 10 241 C11.65038611 241.50622172 13.29642776 242.02685402 14.9375 242.5625 C15.66839844 242.79066406 16.39929688 243.01882813 17.15234375 243.25390625 C19 244 19 244 21 246 C21.84250679 250.51406271 21.52937999 254.03927336 19.3125 258.0625 C13.88124855 261.23926972 9.11706907 261.09301861 3 260 C-10.1833053 255.71356281 -22.08030356 246.86955559 -28.796875 234.65234375 C-30.55014564 230.78717894 -31.85275528 226.8323575 -33.04296875 222.76171875 C-34.77656852 217.75904512 -36.85255397 214.6856604 -41.3125 211.8125 C-42.05113281 211.32394531 -42.78976562 210.83539063 -43.55078125 210.33203125 C-46.28890028 208.84287879 -49.03829599 207.95370882 -52 207 C-51.96192573 220.42191632 -51.90253808 233.84355408 -51.81609726 247.26525116 C-51.77662358 253.49780821 -51.74443433 259.73022399 -51.72900391 265.96289062 C-51.71383695 271.980132 -51.67938979 277.99698499 -51.63169098 284.01405334 C-51.61687775 286.30726237 -51.60895902 288.60052685 -51.60811615 290.89378357 C-51.60574468 294.11124867 -51.57864871 297.32764204 -51.54589844 300.54492188 C-51.5509288 301.48863647 -51.55595917 302.43235107 -51.56114197 303.40466309 C-51.46745153 309.37155368 -50.47224984 314.0494058 -47 319 C-39.85349777 325.05899102 -31.8861544 324.20826924 -23 324 C-22.2575 324.01804687 -21.515 324.03609375 -20.75 324.0546875 C-11.12091411 323.79937083 -0.9442673 317.22472387 6 310.875 C13.25271117 302.97790807 18.71707813 291.49083512 19.4375 280.75 C20 277 20 277 21.375 275.0625 C24.49771517 273.02072469 27.4429208 272.84373716 31.0625 272.625 C44.92756134 271.38444188 54.23809148 265.70166455 63.30859375 255.2109375 C70.40589584 245.93363269 70.81463626 236.38094778 70 225 C69.27997416 221.53158283 68.27392832 218.30033244 67 215 C66.67 214.01 66.34 213.02 66 212 C65.41516846 212.21076172 64.83033691 212.42152344 64.2277832 212.63867188 C57.45538594 214.89680178 51.30017277 215.51851053 44.1875 215.5 C43.17751953 215.52835938 42.16753906 215.55671875 41.12695312 215.5859375 C33.78906672 215.60531146 33.78906672 215.60531146 29.86328125 212.59375 C27.26250528 208.97338261 26.78400289 206.62403174 26.37890625 202.16796875 C27.19688037 199.31277606 28.75665181 197.75919722 31.08520508 195.97045898 C34.75979555 194.10809801 38.55384904 194.66879115 42.5625 194.9375 C52.140525 195.27067151 60.30090107 194.42600065 68.72265625 189.36328125 C71 188 71 188 73 188 C73.36738281 187.22076172 73.36738281 187.22076172 73.7421875 186.42578125 C75 184 75 184 76.9453125 180.91796875 C83.81691523 169.51664782 85.18592119 158.11320414 83 145 C79.82577562 132.60919699 71.97619748 122.29954205 61.35620117 115.2434082 C59 113 59 113 58.51171875 110.16601562 C58.56972656 109.09029297 58.62773438 108.01457031 58.6875 106.90625 C58.72617187 105.71 58.76484375 104.51375 58.8046875 103.28125 C58.933286 100.79158299 59.06345358 98.30199646 59.1953125 95.8125 C59.5188874 85.71696322 57.56225866 78.23938043 51.859375 69.8515625 C44.42897807 62.00836574 37.44575584 56.91558245 27 54 C26.01 53.67 25.02 53.34 24 53 C24.04640625 53.63164063 24.0928125 54.26328125 24.140625 54.9140625 C24.60576825 66.4429702 21.83983986 78.23888863 14 87 C9.26601351 91.37058919 3.8738646 94.42243916 -2 97 C-2.9075 97.4125 -3.815 97.825 -4.75 98.25 C-10.11465077 99.48799633 -16.93277882 100.84160278 -21.88671875 97.8671875 C-24.11611394 95.42698989 -24.97226452 93.15100429 -25.5625 89.9375 C-24.84153032 86.1724361 -23.70414518 84.72134165 -21 82 C-18.32162744 80.97641813 -15.88285056 80.18313729 -13.125 79.5 C-6.08325441 77.73629749 -1.22431026 75.51554121 2.84375 69.0859375 C4.99289992 63.24214602 4.51231253 56.75663803 4.5 50.625 C4.52835937 49.34882812 4.55671875 48.07265625 4.5859375 46.7578125 C4.60551688 37.28139126 2.88880074 31.40048505 -3.375 24.3125 C-4.24125 23.549375 -5.1075 22.78625 -6 22 C-6.46664063 21.50757812 -6.93328125 21.01515625 -7.4140625 20.5078125 C-15.83114801 12.17365394 -27.26931386 11.55538318 -38.46875 11.56640625 C-42.22596808 12.02774608 -44.06843987 12.64133279 -47 15 C-49.50446427 18.5389243 -50.37554252 20.9558108 -50.38095093 25.27514648 C-50.39364014 26.83965042 -50.39364014 26.83965042 -50.40658569 28.4357605 C-50.400513 29.56942047 -50.39444031 30.70308044 -50.38818359 31.87109375 C-50.39344055 33.07323517 -50.39869751 34.27537659 -50.40411377 35.51394653 C-50.41504294 38.80326035 -50.4124984 42.09221106 -50.40297651 45.38151932 C-50.39536803 48.82784016 -50.40242882 52.27413717 -50.40713501 55.72045898 C-50.41258912 61.50736836 -50.40541007 67.29416278 -50.39111328 73.08105469 C-50.37478733 79.76638343 -50.38007609 86.45143767 -50.3965925 93.13675976 C-50.41021726 98.88213795 -50.41212221 104.62743363 -50.40427649 110.37282276 C-50.39960538 113.80188813 -50.39895953 117.23082457 -50.40888596 120.65988159 C-50.41649542 124.48307922 -50.40490224 128.30574805 -50.38818359 132.12890625 C-50.39729263 133.82939621 -50.39729263 133.82939621 -50.40658569 135.5642395 C-50.39389648 137.12874344 -50.39389648 137.12874344 -50.38095093 138.72485352 C-50.37981985 139.6281691 -50.37868877 140.53148468 -50.37752342 141.46217346 C-49.77740158 145.49637384 -47.98565707 148.15737932 -44.91723633 150.78051758 C-40.71968611 152.53520528 -36.83339809 152.47944911 -32.32421875 152.51171875 C-31.3990596 152.52966995 -30.47390045 152.54762115 -29.52070618 152.56611633 C-26.57634997 152.62014079 -23.63215516 152.65408991 -20.6875 152.6875 C-18.68682654 152.72068001 -16.68617435 152.7551703 -14.68554688 152.79101562 C-9.79048116 152.87586284 -4.89546267 152.94271166 0 153 C0.28230469 152.22785156 0.56460937 151.45570313 0.85546875 150.66015625 C3.03972857 145.5834295 7.62652578 142.22255995 12 139 C15.61930698 137.79356434 18.19231005 137.67731441 22 138 C25.10039543 139.75494081 27.48825667 141.48825667 30 144 C30.87858263 147.82811005 31.09674579 149.32176294 30 153 C23.61385993 163.04448603 14.42240788 169.36358215 3.08293152 172.56178284 C-0.87381953 173.39422318 -4.85749578 173.32584646 -8.88671875 173.3359375 C-9.82498001 173.3425943 -10.76324127 173.3492511 -11.72993469 173.35610962 C-13.70917819 173.36619716 -15.68845543 173.37092785 -17.66772461 173.37060547 C-20.66123062 173.37496177 -23.65324027 173.41127657 -26.64648438 173.44921875 C-40.83692925 173.53499538 -52.23289913 172.80605004 -62.8671875 162.4453125 C-68.5150856 155.96988354 -71.13210521 149.76839756 -71.11352539 141.22167969 C-71.11344986 140.0607782 -71.11337433 138.89987671 -71.11329651 137.70379639 C-71.10813522 136.45576233 -71.10297394 135.20772827 -71.09765625 133.921875 C-71.09553383 131.99930878 -71.09553383 131.99930878 -71.09336853 130.03790283 C-71.08955901 126.6381636 -71.07974214 123.2384674 -71.06866455 119.83874512 C-71.05841674 116.366461 -71.0538637 112.8941699 -71.04882812 109.421875 C-71.03811841 102.61456571 -71.02106084 95.80728492 -71 89 C-71.6068161 88.94385529 -72.2136322 88.88771057 -72.83883667 88.8298645 C-73.64080475 88.74952972 -74.44277283 88.66919495 -75.26904297 88.58642578 C-76.06148407 88.50965607 -76.85392517 88.43288635 -77.67037964 88.35379028 C-85.31899285 87.19222547 -94.37591672 81.91300142 -99.5390625 76.16015625 C-105.40260242 67.49026969 -108.11353968 59.00301372 -108.2109375 48.69140625 C-108.23899959 47.0410056 -108.26766401 45.39061509 -108.296875 43.74023438 C-108.3381472 41.14868384 -108.37505255 38.55732426 -108.40136719 35.96557617 C-108.42901901 33.45712643 -108.47487814 30.94952685 -108.5234375 28.44140625 C-108.5283168 27.28494347 -108.5283168 27.28494347 -108.53329468 26.1051178 C-108.63630143 21.58180625 -109.14297227 18.56533339 -112 15 C-120.3454892 10.33304755 -131.29602637 10.7556391 -140.4375 13.0625 C-150.29237188 16.60694131 -157.10442496 24.31226331 -161.75 33.4375 C-162.97388096 36.92556075 -163.71435448 40.24346638 -164.27734375 43.88671875 C-165.31306401 46.91550071 -166.39580188 48.10417653 -169 50 C-171.90480325 50.72496529 -174.83719646 50.96130718 -177.8125 51.25 C-189.42153492 52.73172044 -200.63050857 57.0809891 -208.578125 66.09375 C-213.60595906 72.83436269 -216.55152961 78.70421505 -218 87 C-218.33 87.33 -218.66 87.66 -219 88 C-219.09986975 90.84335048 -219.13877881 93.65697163 -219.125 96.5 C-219.12886719 97.29792969 -219.13273437 98.09585938 -219.13671875 98.91796875 C-219.5089961 102.7683932 -219.5089961 102.7683932 -218 106 C-217.4375 109.1875 -217.4375 109.1875 -218 113 C-220.36361244 115.43560064 -223.16566906 117.15369287 -226 119 C-234.37955209 125.00061145 -240.26957075 133.70892512 -242.55859375 143.80078125 C-244.42374841 157.31902611 -243.85093435 170.81539375 -236.3203125 182.63671875 C-233.05520332 186.67819833 -230.22853816 189.01964909 -225 190 C-223.989375 190.20625 -222.97875 190.4125 -221.9375 190.625 C-211.45074526 191.81495566 -211.45074526 191.81495566 -201.4375 189.375 C-192.38891422 180.55842924 -192.58502465 169.82365616 -192 158 C-192.61617188 157.71769531 -193.23234375 157.43539062 -193.8671875 157.14453125 C-197.4563598 155.21847359 -199.34513489 152.21150046 -201.25 148.6875 C-203.00221773 142.40871981 -202.44730605 137.5272282 -199.34765625 131.89453125 C-196.67202206 128.13313247 -193.13017154 125.06508577 -189 123 C-182.57633123 122.2812042 -176.72819664 121.77762791 -171.375 125.8125 C-170.21578905 126.83756645 -169.08747954 127.89912785 -168 129 C-167.17435547 129.76570313 -167.17435547 129.76570313 -166.33203125 130.546875 C-162.7540994 134.45007338 -163.61102099 142.05965344 -163.6484375 147.0859375 C-164.16854054 151.39701379 -165.88287731 154.05513935 -169 157 C-169.70640625 157.3815625 -170.4128125 157.763125 -171.140625 158.15625 C-173.6213317 160.61611043 -173.45122773 162.6728545 -173.50341797 166.05566406 C-173.50172607 167.23467285 -173.50172607 167.23467285 -173.5 168.4375 C-173.70149695 176.24433548 -174.90834023 182.75869803 -178 190 C-178.433125 191.0725 -178.86625 192.145 -179.3125 193.25 C-185.91646541 204.0120177 -194.94192168 209.09320626 -206.88891602 212.54589844 C-209.03486719 213.00750006 -210.91774918 213.11425948 -213.109375 213.09765625 C-213.86347656 213.09443359 -214.61757813 213.09121094 -215.39453125 213.08789062 C-216.17183594 213.07951172 -216.94914062 213.07113281 -217.75 213.0625 C-218.54277344 213.05798828 -219.33554687 213.05347656 -220.15234375 213.04882812 C-222.10159508 213.03708565 -224.05080738 213.01915146 -226 213 C-226.48108275 214.41601714 -226.95978141 215.83284437 -227.4375 217.25 C-227.70433594 218.03890625 -227.97117187 218.8278125 -228.24609375 219.640625 C-231.90349612 231.08658889 -229.53678312 241.41318027 -224.51953125 252.17578125 C-219.44726228 261.60316034 -210.2985687 268.04894209 -200.23828125 271.52734375 C-196.22560644 272.37469742 -192.14162538 272.42260553 -188.05078125 272.49609375 C-184.24098226 273.12536913 -182.61639117 274.17543304 -180 277 C-179.3203125 279.7421875 -179.3203125 279.7421875 -179.125 282.875 C-177.7141309 294.50160646 -171.82504697 305.27410148 -163 313 C-159.79981371 315.30434126 -156.5114916 317.21153844 -153 319 C-152.21109375 319.4021875 -151.4221875 319.804375 -150.609375 320.21875 C-142.17630067 324.23449968 -133.39550778 324.98917643 -124.25 323.3125 C-118.23964444 320.88524102 -115.47944464 316.81529912 -113 311 C-112.43084828 307.3491481 -112.43084828 307.3491481 -112.3125 303.625 C-112.21388672 301.75714844 -112.21388672 301.75714844 -112.11328125 299.8515625 C-112.05720703 298.44003906 -112.05720703 298.44003906 -112 297 C-112.91394531 296.72800781 -113.82789063 296.45601563 -114.76953125 296.17578125 C-120.7399121 294.00276476 -125.2693548 289.76469542 -128 284 C-129.56105421 278.71471647 -130.14599955 272.96520961 -128.12890625 267.74609375 C-124.81933611 262.02759058 -120.33738762 258.11246254 -114 256 C-106.76344403 255.43242698 -101.67443855 257.19989713 -95.75 261.1875 C-91.55937772 265.47336369 -88.83827592 269.89695895 -88.5625 276 C-88.78099441 280.24383375 -89.92850886 285.92850886 -93 289 C-93.12187773 290.90495266 -93.17975462 292.81406346 -93.2109375 294.72265625 C-93.23929688 295.90150391 -93.26765625 297.08035156 -93.296875 298.29492188 C-93.34838843 300.77915725 -93.39282164 303.26355096 -93.4296875 305.74804688 C-93.72640171 317.14063626 -96.16819268 324.54039249 -104 333 C-113.42873342 341.66060849 -123.57383391 344.41759756 -136.11328125 344.21875 C-141.42545173 343.91977357 -145.99573737 342.72819881 -151 341 C-151.87914062 340.74476563 -152.75828125 340.48953125 -153.6640625 340.2265625 C-171.53277857 334.61362287 -184.11661448 320.748051 -193.08740234 304.87695312 C-194.28429858 302.41527889 -194.75624715 300.00480752 -195.1875 297.3125 C-195.60219483 294.92844445 -195.60219483 294.92844445 -197 293 C-200.62091213 291.25087683 -204.20533571 290.17833035 -208.07421875 289.12890625 C-222.67211168 285.16174316 -235.4719856 273.94430883 -243 261 C-245.4632521 255.83352968 -247.27125675 250.44777392 -249 245 C-249.33 244.01 -249.66 243.02 -250 242 C-251.02616919 231.02908235 -250.93999873 220.65914262 -246.19140625 210.59375 C-244.96273589 207.9188742 -244.10891566 205.95019382 -244 203 C-245.62173646 200.69090056 -245.62173646 200.69090056 -248 198.5625 C-259.30272606 186.73160918 -264.43579177 170.06222962 -264.21484375 153.859375 C-262.78249207 134.79607632 -254.83330862 119.4373277 -241.41015625 106.109375 C-240 105 -240 105 -238 105 C-238.04640625 103.88625 -238.0928125 102.7725 -238.140625 101.625 C-238.72310112 81.71310895 -234.14429166 65.495835 -220.375 50.625 C-210.55663479 41.50577535 -196.80506599 33 -183 33 C-182.89945312 32.44054687 -182.79890625 31.88109375 -182.6953125 31.3046875 C-179.64774637 18.32122084 -169.81699348 6.8243643 -158.859375 -0.4140625 C-156.61624097 -1.72928137 -154.33906896 -2.86393196 -152 -4 C-151.13205811 -4.42676025 -150.26411621 -4.85352051 -149.36987305 -5.29321289 C-141.81657596 -8.74048942 -135.39584062 -9.86742589 -127.125 -9.75 C-125.98893311 -9.7404126 -124.85286621 -9.7308252 -123.68237305 -9.72094727 C-114.24892548 -9.42334727 -107.60206397 -7.68472925 -100 -2 C-98.90558594 -1.18982422 -98.90558594 -1.18982422 -97.7890625 -0.36328125 C-91.91902066 4.75133326 -88.62349821 12.48493874 -87 20 C-86.89539032 22.84894827 -86.83914606 25.67803253 -86.82421875 28.52734375 C-86.80102671 30.22331979 -86.77690963 31.91928338 -86.75195312 33.61523438 C-86.71681879 36.27930118 -86.6874728 38.94290718 -86.67407227 41.60717773 C-86.65858021 44.18529363 -86.61837579 46.76208014 -86.57421875 49.33984375 C-86.57708138 50.5291172 -86.57708138 50.5291172 -86.58000183 51.74241638 C-86.46954411 56.74923739 -85.72840333 59.3500168 -82 63 C-78.38030674 65.6671424 -75.39845568 66.34568428 -71 67 C-71.0199855 66.08157318 -71.0199855 66.08157318 -71.04037476 65.14459229 C-71.17404751 58.71982017 -71.26399348 52.29544866 -71.32958984 45.86962891 C-71.3595958 43.47786388 -71.40041451 41.08620732 -71.45263672 38.69482422 C-71.99783937 13.07029974 -71.99783937 13.07029974 -65 4 C-64.3201001 3.1136084 -63.6402002 2.2272168 -62.93969727 1.31396484 C-47.18919716 -17.47561855 -17.98758202 -10.91050057 0 0 Z " fill="#6C00F9" transform="translate(507,41)"/>
<path d="M0 0 C3.87959628 2.57161811 6.36832168 4.95171477 8.05078125 9.359375 C9.55141496 23.10842443 9.55141496 23.10842443 6.05078125 28.359375 C6.05078125 34.28046638 10.72140506 38.86578691 14.546875 42.9609375 C18.1956969 46.36407813 22.20794193 48.59905972 26.61328125 50.921875 C35.88448127 55.81206174 40.95720176 60.44166207 45.05078125 70.359375 C45.8394418 74.6341805 45.87196657 78.77496457 45.8125 83.11328125 C45.81586868 84.29478256 45.81923737 85.47628387 45.82270813 86.69358826 C45.82241094 89.17524599 45.80731954 91.65694229 45.77807617 94.13842773 C45.7383462 97.9157003 45.75742348 101.68946474 45.78320312 105.46679688 C45.77564411 107.89063848 45.76469075 110.31447238 45.75 112.73828125 C45.76047615 114.41368736 45.76047615 114.41368736 45.77116394 116.12294006 C45.60665059 125.34890661 43.01585817 132.25049283 36.86328125 139.171875 C30.67230273 144.91482218 22.83162073 148.48097877 14.3828125 148.46484375 C1.61729 148.21209744 1.61729 148.21209744 -9.43359375 153.75390625 C-9.93375 154.28371094 -10.43390625 154.81351563 -10.94921875 155.359375 C-11.71234375 156.16375 -12.47546875 156.968125 -13.26171875 157.796875 C-13.81859375 158.6425 -14.37546875 159.488125 -14.94921875 160.359375 C-15.5215625 161.19662109 -15.5215625 161.19662109 -16.10546875 162.05078125 C-17.9022715 164.86132068 -18.99202605 166.73153457 -18.76171875 170.109375 C-18.49359375 170.851875 -18.22546875 171.594375 -17.94921875 172.359375 C-16.25338977 177.44686195 -15.95790352 183.31178874 -17.6328125 188.4609375 C-20.35031638 193.58021868 -24.31289018 196.90245658 -29.32421875 199.671875 C-33.84892413 200.85691689 -37.74047297 201.30889117 -42.06640625 199.44921875 C-47.17651063 196.45064807 -51.26498796 192.72783658 -53.94921875 187.359375 C-54.4337726 181.6082768 -54.80194883 176.23538117 -52.38671875 170.921875 C-44.69604879 162.83681171 -44.69604879 162.83681171 -39.93359375 161.53515625 C-36.07358072 160.01439196 -35.41517384 158.45542281 -33.57421875 154.796875 C-27.76753164 144.19776927 -20.29009939 136.14860017 -8.87890625 131.51953125 C-5.15178815 130.51832502 -1.43685497 130.31818151 2.40234375 130.13671875 C3.19503662 130.0991748 3.98772949 130.06163086 4.80444336 130.02294922 C6.39579 129.9568626 7.98791628 129.90702765 9.58032227 129.87548828 C14.41375655 129.71595523 17.9258457 129.13988711 22.05078125 126.359375 C26.03998424 121.63890745 25.51835922 116.41497565 25.51953125 110.546875 C25.52714478 109.50039795 25.5347583 108.4539209 25.54260254 107.37573242 C25.55339081 105.16685366 25.55626183 102.95792395 25.55175781 100.74902344 C25.55078456 97.37088086 25.59244211 93.99500285 25.63671875 90.6171875 C25.64192523 88.46875473 25.64461395 86.32031408 25.64453125 84.171875 C25.66092651 83.16342529 25.67732178 82.15497559 25.69421387 81.1159668 C25.64302876 75.25775985 25.64302876 75.25775985 22.6862793 70.29003906 C19.99112324 68.31567185 17.3166203 66.67081995 14.36328125 65.109375 C5.14714807 59.8737067 -7.35428167 50.68302565 -10.6640625 40.06640625 C-10.75816406 39.50308594 -10.85226562 38.93976563 -10.94921875 38.359375 C-12.10421875 38.318125 -13.25921875 38.276875 -14.44921875 38.234375 C-20.31176949 37.49635886 -24.57258843 34.20859175 -28.3046875 29.734375 C-32.16913517 24.15394515 -32.64404078 18.95529121 -31.94921875 12.359375 C-29.87450711 5.50689885 -25.79907749 1.60512593 -19.69921875 -1.953125 C-12.83066597 -3.67026319 -6.32546111 -3.28070097 0 0 Z " fill="#6C00FA" transform="translate(373.94921875,100.640625)"/>
<path d="M0 0 C31.86486486 0 31.86486486 0 40 7 C46.20684672 15.33201706 46.57145989 22.86957465 46 33 C44.94943166 38.88152824 42.67926502 44.10428612 38 48 C30.08205042 53.4584445 22.74150139 53.62354228 13.375 53.3125 C6.754375 53.1578125 6.754375 53.1578125 0 53 C0 35.51 0 18.02 0 0 Z " fill="#F7F7F7" transform="translate(671,411)"/>
<path d="M0 0 C5.61 0 11.22 0 17 0 C20.95737271 9.19131725 24.4820667 18.51639574 27.96459961 27.89648438 C28.34237549 28.91291016 28.72015137 29.92933594 29.109375 30.9765625 C29.44936523 31.89518066 29.78935547 32.81379883 30.13964844 33.76025391 C30.95480252 35.99022666 30.95480252 35.99022666 32 38 C32.38857178 36.91992676 32.77714355 35.83985352 33.17749023 34.72705078 C34.61684076 30.72725393 36.05780723 26.72804085 37.49926758 22.72900391 C38.12340825 20.9967415 38.74710813 19.2643202 39.37036133 17.53173828 C40.26528468 15.04417886 41.16178169 12.55719153 42.05859375 10.0703125 C42.3377916 9.29317902 42.61698944 8.51604553 42.90464783 7.71536255 C44.88612829 2.22774341 44.88612829 2.22774341 46 0 C51.61 0 57.22 0 63 0 C63 17.49 63 34.98 63 53 C59.37 53 55.74 53 52 53 C51.67 40.46 51.34 27.92 51 15 C50.00097656 17.57554687 49.00195312 20.15109375 47.97265625 22.8046875 C47.00649843 25.29354726 46.04000866 27.78227787 45.07348633 30.27099609 C44.40093804 32.00328299 43.728736 33.73570436 43.05688477 35.46826172 C42.09221515 37.95575665 41.12630935 40.44276844 40.16015625 42.9296875 C39.85908463 43.70682098 39.558013 44.48395447 39.24781799 45.28463745 C37.11387171 50.77225659 37.11387171 50.77225659 36 53 C32.7 53 29.4 53 26 53 C25.61666504 51.99622314 25.23333008 50.99244629 24.83837891 49.95825195 C23.41120209 46.22144742 21.98350958 42.48484008 20.55566406 38.74829102 C19.93866209 37.13343564 19.32179854 35.51852738 18.70507812 33.90356445 C17.81677364 31.57749617 16.92796568 29.2516208 16.0390625 26.92578125 C15.76502594 26.20787918 15.49098938 25.48997711 15.20864868 24.75032043 C13.83381344 21.15450538 12.42985489 17.57463723 11 14 C10.67 26.87 10.34 39.74 10 53 C6.7 53 3.4 53 0 53 C0 35.51 0 18.02 0 0 Z " fill="#F8F8F8" transform="translate(513,411)"/>
<path d="M0 0 C4.41375 -0.0825 8.8275 -0.165 13.375 -0.25 C15.43113525 -0.30462402 15.43113525 -0.30462402 17.52880859 -0.36035156 C25.47133673 -0.43170886 33.49448368 -0.07994798 39.67749023 5.51904297 C43.61772382 10.08785251 44.39881843 13.01772357 44 19 C42.07847321 25.00477122 38.2951635 27.15746567 33 30 C34.36125 30.7734375 34.36125 30.7734375 35.75 31.5625 C43.09910513 36.55989149 44.16823587 44.84864964 46 53 C41.71 53 37.42 53 33 53 C32.566875 51.659375 32.13375 50.31875 31.6875 48.9375 C30.30835353 44.83890979 28.93575727 40.87151455 27 37 C23.83754459 35.9458482 21.13051782 35.68724328 17.8125 35.4375 C15.894375 35.293125 13.97625 35.14875 12 35 C12 40.94 12 46.88 12 53 C8.04 53 4.08 53 0 53 C0 35.51 0 18.02 0 0 Z " fill="#F6F6F6" transform="translate(398,411)"/>
<path d="M0 0 C3.96 0 7.92 0 12 0 C12 17.49 12 34.98 12 53 C7.38 53 2.76 53 -2 53 C-5.06166698 49.80124345 -6.89578012 47.62975422 -8.94140625 43.90136719 C-10.6028393 40.91722499 -12.42432411 38.033842 -14.22192383 35.13037109 C-16.02860343 32.19598394 -17.79255924 29.23682425 -19.54956055 26.27246094 C-21.57527383 23.0986957 -23.81155521 20.0638227 -26 17 C-26.33 28.88 -26.66 40.76 -27 53 C-30.63 53 -34.26 53 -38 53 C-38 35.84 -38 18.68 -38 1 C-33.05 1 -28.1 1 -23 1 C-19.63221382 4.48194842 -18.19264437 6.80845786 -16 11 C-14.51056984 13.42137885 -12.97931552 15.81323304 -11.4440918 18.20581055 C-9.41787667 21.36534785 -7.43110464 24.54880959 -5.44458008 27.73339844 C-3.6712413 30.51583502 -1.83023191 33.25465214 0 36 C0 24.12 0 12.24 0 0 Z " fill="#F5F5F5" transform="translate(490,411)"/>
<path d="M0 0 C15 0 15 0 18.44921875 3.05078125 C19.62182617 5.08227539 19.62182617 5.08227539 20.6875 7.3125 C21.55073219 8.86012941 22.41537334 10.40697358 23.28125 11.953125 C23.9309375 13.17999023 23.9309375 13.17999023 24.59375 14.43164062 C26.53676831 17.98034768 28.70547003 21.36653976 30.89257812 24.76855469 C33.28726364 28.49608203 35.63939194 32.25079896 38 36 C38.33 24.12 38.66 12.24 39 0 C42.63 0 46.26 0 50 0 C50 17.49 50 34.98 50 53 C36 53 36 53 32.9375 50.4921875 C31.92333984 48.78149414 31.92333984 48.78149414 31 46.875 C30.22291612 45.51603274 29.44415805 44.15802195 28.6640625 42.80078125 C28.25317383 42.04619629 27.84228516 41.29161133 27.41894531 40.51416016 C25.26215965 36.69265659 22.8703014 33.02935785 20.48974609 29.34448242 C17.63416235 24.91275623 14.82148163 20.45351512 12 16 C11.67 28.21 11.34 40.42 11 53 C7.37 53 3.74 53 0 53 C0 35.51 0 18.02 0 0 Z " fill="#F9F9F9" transform="translate(610,411)"/>
<path d="M0 0 C4.269375 -0.0825 8.53875 -0.165 12.9375 -0.25 C14.26515381 -0.28641602 15.59280762 -0.32283203 16.96069336 -0.36035156 C25.216009 -0.43715096 31.70734744 0.38390681 38.15625 5.81640625 C38.5996875 6.39261719 39.043125 6.96882813 39.5 7.5625 C39.9640625 8.14128906 40.428125 8.72007812 40.90625 9.31640625 C43.95313439 14.00643186 43.62971467 19.64010306 43 25 C41.24058476 29.96582619 38.59153358 33.00174411 33.9375 35.4375 C28.66282492 37.76671296 23.98613834 38.13243781 18.25 38.0625 C15.8575 38.041875 13.465 38.02125 11 38 C11 42.95 11 47.9 11 53 C7.37 53 3.74 53 0 53 C0 35.51 0 18.02 0 0 Z " fill="#FAFAFA" transform="translate(159,411)"/>
<path d="M0 0 C5.61 0 11.22 0 17 0 C19.26635477 6.58160697 21.52651387 13.16529661 23.78100586 19.75097656 C24.54851902 21.9901642 25.31770976 24.22877756 26.08862305 26.46679688 C27.19763683 29.68729852 28.30056341 32.90983013 29.40234375 36.1328125 C29.74716293 37.12991241 30.09198212 38.12701233 30.44725037 39.15432739 C32.01441069 43.75672893 33.42454735 48.14618201 34 53 C30.04 53 26.08 53 22 53 C19 46.375 19 46.375 19 43 C11.74 43 4.48 43 -3 43 C-3.33 44.98 -3.66 46.96 -4 49 C-4.33 50.32 -4.66 51.64 -5 53 C-9.29 53 -13.58 53 -18 53 C-17.33955529 49.69777644 -16.69129013 46.81943875 -15.64892578 43.67211914 C-15.37839386 42.85099136 -15.10786194 42.02986359 -14.82913208 41.18385315 C-14.53747162 40.30978317 -14.24581116 39.4357132 -13.9453125 38.53515625 C-13.64309784 37.62422714 -13.34088318 36.71329803 -13.0295105 35.77476501 C-12.39050618 33.85202002 -11.74993756 31.9297943 -11.10791016 30.00805664 C-10.13021829 27.07813801 -9.16054283 24.14564853 -8.19140625 21.21289062 C-7.5681951 19.3409837 -6.94451267 17.46923361 -6.3203125 15.59765625 C-6.0327005 14.7256105 -5.7450885 13.85356476 -5.44876099 12.95509338 C-5.17192474 12.13081345 -4.8950885 11.30653351 -4.60986328 10.45727539 C-4.37083282 9.7395546 -4.13180237 9.0218338 -3.88552856 8.28236389 C-2.78247625 5.43935367 -1.36377649 2.72755298 0 0 Z " fill="#F7F7F7" transform="translate(220,411)"/>
<path d="M0 0 C13.2 0 26.4 0 40 0 C40 3.3 40 6.6 40 10 C30.76 10 21.52 10 12 10 C12 13.96 12 17.92 12 22 C20.25 22 28.5 22 37 22 C37 24.97 37 27.94 37 31 C28.75 31 20.5 31 12 31 C12 35.29 12 39.58 12 44 C21.24 44 30.48 44 40 44 C40 46.97 40 49.94 40 53 C26.8 53 13.6 53 0 53 C0 35.51 0 18.02 0 0 Z " fill="#F6F6F6" transform="translate(349,411)"/>
<path d="M0 0 C14.19 0 28.38 0 43 0 C43 3.3 43 6.6 43 10 C38.05 10 33.1 10 28 10 C28 24.19 28 38.38 28 53 C24.04 53 20.08 53 16 53 C16 38.81 16 24.62 16 10 C10.72 10 5.44 10 0 10 C0 6.7 0 3.4 0 0 Z " fill="#F6F6F6" transform="translate(299,411)"/>
<path d="M0 0 C13.86 0 27.72 0 42 0 C42 3.3 42 6.6 42 10 C37.05 10 32.1 10 27 10 C27 24.19 27 38.38 27 53 C23.04 53 19.08 53 15 53 C15 38.81 15 24.62 15 10 C10.05 10 5.1 10 0 10 C0 6.7 0 3.4 0 0 Z " fill="#F8F8F8" transform="translate(252,411)"/>
<path d="M0 0 C13 0 13 0 16.625 1.625 C21.08409911 6.08409911 22.18703566 9.65651307 22.375 15.875 C22.22065535 21.27706292 21.52586463 25.20956707 19 30 C14 33 14 33 0 33 C0 22.11 0 11.22 0 0 Z " fill="#0E0A0E" transform="translate(683,421)"/>
<path d="M0 0 C3.96 0 7.92 0 12 0 C12 17.49 12 34.98 12 53 C8.04 53 4.08 53 0 53 C0 35.51 0 18.02 0 0 Z " fill="#F5F5F5" transform="translate(587,411)"/>
<path d="M0 0 C7.46340142 0.09021694 7.46340142 0.09021694 10.625 2.3125 C13.19904263 5.91615968 13.39806126 7.8804647 13.21875 12.19140625 C12.61268564 15.44900219 11.84973031 17.60434757 9.140625 19.6171875 C5.89206911 20.67460334 2.96905353 20.56308432 -0.4375 20.5 C-1.70078125 20.48195313 -2.9640625 20.46390625 -4.265625 20.4453125 C-5.22984375 20.42210937 -6.1940625 20.39890625 -7.1875 20.375 C-7.21638514 17.22918577 -7.23425923 14.08340531 -7.25 10.9375 C-7.25837891 10.03966797 -7.26675781 9.14183594 -7.27539062 8.21679688 C-7.27861328 7.36279297 -7.28183594 6.50878906 -7.28515625 5.62890625 C-7.29301147 4.44276733 -7.29301147 4.44276733 -7.30102539 3.23266602 C-7.04653941 -0.9316003 -3.42436333 0.10060276 0 0 Z " fill="#171317" transform="translate(177.1875,419.625)"/>
<path d="M0 0 C13.125 -0.53571429 13.125 -0.53571429 16.75 1.5625 C19.71471806 4.7742779 20.1526226 6.6502558 20 11 C17.91374661 14.42741629 16.8255689 15.72481037 13 17 C8.66328697 17.13501597 4.33988266 17.04296914 0 17 C0 11.39 0 5.78 0 0 Z " fill="#110E12" transform="translate(410,420)"/>
<path d="M0 0 C0.66 0 1.32 0 2 0 C3.17652472 3.4133521 4.33948174 6.83117595 5.5 10.25 C5.83386719 11.21808594 6.16773438 12.18617188 6.51171875 13.18359375 C6.98544922 14.58544922 6.98544922 14.58544922 7.46875 16.015625 C7.76201172 16.87446289 8.05527344 17.73330078 8.35742188 18.61816406 C9 21 9 21 9 25 C3.72 25 -1.56 25 -7 25 C-5.32234985 16.45923559 -2.65997819 8.27435964 0 0 Z " fill="#191619" transform="translate(227,421)"/>
<path d="M0 0 C-0.51949219 0.29132813 -1.03898437 0.58265625 -1.57421875 0.8828125 C-6.44488081 3.74578946 -9.51189295 6.5885705 -13 11 C-13.66 11 -14.32 11 -15 11 C-13.60991124 5.74855359 -10.1957125 3.12699328 -6 0 C-3.50907189 -1.24546405 -2.58919267 -0.7767578 0 0 Z " fill="#6C01E4" transform="translate(322,165)"/>
<path d="M0 0 C0.66 0.33 1.32 0.66 2 1 C-1.63 4.63 -5.26 8.26 -9 12 C-9.33 11.34 -9.66 10.68 -10 10 C-8.90033225 8.70450101 -7.79508199 7.41373929 -6.6875 6.125 C-6.07261719 5.40570313 -5.45773437 4.68640625 -4.82421875 3.9453125 C-3 2 -3 2 0 0 Z " fill="#6902DE" transform="translate(331,263)"/>
<path d="M0 0 C0 0.66 0 1.32 0 2 C-1.60875 2.12375 -1.60875 2.12375 -3.25 2.25 C-7.33500175 3.06700035 -8.34891677 3.9561637 -11 7 C-11.66 7 -12.32 7 -13 7 C-10.30332745 0.48304134 -6.81821784 -0.39335872 0 0 Z " fill="#6B02E5" transform="translate(547,236)"/>
<path d="M0 0 C0.66 0.33 1.32 0.66 2 1 C-1.63 4.63 -5.26 8.26 -9 12 C-9.66 11.67 -10.32 11.34 -11 11 C-9.54540569 9.35086118 -8.08620743 7.70578218 -6.625 6.0625 C-5.81289063 5.14597656 -5.00078125 4.22945312 -4.1640625 3.28515625 C-2 1 -2 1 0 0 Z " fill="#6A02E1" transform="translate(354,239)"/>
<path d="M0 0 C0.33 0 0.66 0 1 0 C1 4.29 1 8.58 1 13 C0.01 13.33 -0.98 13.66 -2 14 C-1.855625 13.175 -1.71125 12.35 -1.5625 11.5 C-0.94746848 7.67313722 -0.46439363 3.84783293 0 0 Z " fill="#140824" transform="translate(268,133)"/>
<path d="M0 0 C0 3 0 3 -2.5 5.6875 C-3.325 6.450625 -4.15 7.21375 -5 8 C-5.66 7.67 -6.32 7.34 -7 7 C-2.25 1.125 -2.25 1.125 0 0 Z " fill="#6B01E8" transform="translate(387,300)"/>
<path d="M0 0 C0.99 0.33 1.98 0.66 3 1 C0.36 2.98 -2.28 4.96 -5 7 C-3.38262276 3.76524552 -2.52370777 2.29427979 0 0 Z " fill="#130827" transform="translate(364,254)"/>
</svg>
