<?xml version="1.0" encoding="UTF-8"?>
<svg version="1.1" xmlns="http://www.w3.org/2000/svg" width="500" height="244">
<path d="M0 0 C4.62559383 2.64817424 7.52696672 6.10435815 9.44921875 11.125 C9.94413917 14.54581456 9.96436041 17.92270161 9.94921875 21.375 C9.56704063 27.8766401 9.56704063 27.8766401 12.48046875 33.234375 C13.13015625 33.52828125 13.77984375 33.8221875 14.44921875 34.125 C14.42303467 33.54121582 14.39685059 32.95743164 14.36987305 32.35595703 C13.49792046 9.99423633 13.49792046 9.99423633 19.44921875 3.125 C24.90606373 -1.85733672 30.87740707 -1.28242203 37.92578125 -1.2109375 C41.19711066 -0.89903691 43.50712082 -0.28405073 46.44921875 1.125 C46.44921875 1.785 46.44921875 2.445 46.44921875 3.125 C47.00609375 3.186875 47.56296875 3.24875 48.13671875 3.3125 C53.048913 5.03840609 56.48539739 9.99682025 59.44921875 14.125 C59.60970703 15.14787109 59.60970703 15.14787109 59.7734375 16.19140625 C59.99644531 16.82949219 60.21945312 17.46757813 60.44921875 18.125 C62.50122157 19.0541122 62.50122157 19.0541122 65.01171875 19.5 C72.44374115 21.45635497 78.19972307 25.67206211 82.44921875 32.125 C85.60234762 37.8248868 86.18988856 43.48345935 86.921875 49.91796875 C87.39206722 52.77743402 87.97798391 54.66480232 89.44921875 57.125 C90.10921875 57.125 90.76921875 57.125 91.44921875 57.125 C92.27035052 58.51577301 93.0807437 59.91288893 93.88671875 61.3125 C94.33917969 62.08980469 94.79164063 62.86710937 95.2578125 63.66796875 C98.5416846 70.44028204 98.51877909 79.07486394 96.625 86.24609375 C95.21002193 90.20698032 93.7880122 93.61680983 91.44921875 97.125 C90.78921875 97.125 90.12921875 97.125 89.44921875 97.125 C89.63386241 101.46684202 89.63386241 101.46684202 91.44921875 105.125 C92.37460991 115.31947314 91.01177597 122.76211235 84.76171875 130.875 C80.7313112 135.2838976 75.49802357 138.1543043 69.8359375 139.95703125 C66.7488937 141.46771226 66.18196683 142.88733943 64.82421875 146 C63.32588149 149.36874484 61.89820885 152.33911179 59.44921875 155.125 C58.78921875 155.125 58.12921875 155.125 57.44921875 155.125 C57.44921875 155.785 57.44921875 156.445 57.44921875 157.125 C55.91015625 158.34375 55.91015625 158.34375 53.82421875 159.625 C53.15132813 160.0478125 52.4784375 160.470625 51.78515625 160.90625 C46.41128837 163.71000715 41.45559231 164.48870982 35.44921875 164.5 C34.7634375 164.52449219 34.07765625 164.54898438 33.37109375 164.57421875 C28.22454403 164.60368373 25.41820317 163.31643484 21.44921875 160.125 C15.15504032 153.83082157 14.23420684 147.23823982 14.17132568 138.71533203 C14.17537415 137.81927246 14.17942261 136.92321289 14.18359375 136 C14.1816803 135.05366699 14.17976685 134.10733398 14.17779541 133.13232422 C14.17644145 131.14224988 14.18008242 129.15216647 14.18847656 127.16210938 C14.19918723 124.13391079 14.18855424 121.10630536 14.17578125 118.078125 C14.17710298 116.13541537 14.17966567 114.19270611 14.18359375 112.25 C14.17954529 111.35394043 14.17549683 110.45788086 14.17132568 109.53466797 C14.21511998 103.59879136 14.35633219 97.23355209 17.77734375 92.15234375 C21.31967866 89.97562861 25.47084499 90.58001729 29.44921875 91.125 C37.67765147 94.06259786 41.88196441 100.42851186 45.53125 107.91796875 C46.44921875 110.125 46.44921875 110.125 46.44921875 112.125 C48.42921875 112.62 48.42921875 112.62 50.44921875 113.125 C50.44921875 113.785 50.44921875 114.445 50.44921875 115.125 C52.11984375 115.3415625 52.11984375 115.3415625 53.82421875 115.5625 C57.44921875 116.125 57.44921875 116.125 59.44921875 117.125 C59.81428254 122.60095682 59.81428254 122.60095682 58.23828125 124.86328125 C56.44921875 126.125 56.44921875 126.125 54.1796875 126.0859375 C49.22752906 124.94488717 44.8949686 123.69885518 40.44921875 121.125 C40.44921875 120.465 40.44921875 119.805 40.44921875 119.125 C39.78921875 119.125 39.12921875 119.125 38.44921875 119.125 C37.01171875 117.11328125 37.01171875 117.11328125 35.44921875 114.4375 C34.93359375 113.56738281 34.41796875 112.69726562 33.88671875 111.80078125 C32.44921875 109.125 32.44921875 109.125 31.51171875 106.35546875 C31.16109375 105.61941406 30.81046875 104.88335937 30.44921875 104.125 C28.42404221 103.45478382 28.42404221 103.45478382 26.44921875 103.125 C26.29638549 119.48521265 26.70715042 135.78173445 27.44921875 152.125 C29.19164452 152.32461954 30.93542572 152.51242903 32.6796875 152.6953125 C33.65059326 152.80117676 34.62149902 152.90704102 35.62182617 153.01611328 C41.29638255 153.23464814 45.09801466 151.03446429 49.69921875 147.9375 C53.77944167 143.76454474 55.90048663 139.40434882 57.26171875 133.75 C57.65359375 132.88375 58.04546875 132.0175 58.44921875 131.125 C61.51171875 130 61.51171875 130 63.3828125 129.59765625 C68.85070364 128.34696659 73.91287916 126.36185861 77.44921875 121.875 C80.99665047 116.16241168 80.64120061 110.58920934 79.44921875 104.125 C78.24523437 104.14820313 77.04125 104.17140625 75.80078125 104.1953125 C74.2252666 104.21406863 72.64974527 104.23226899 71.07421875 104.25 C70.28015625 104.26675781 69.48609375 104.28351563 68.66796875 104.30078125 C66.5942986 104.31835473 64.52038634 104.22835168 62.44921875 104.125 C60.44921875 102.125 60.44921875 102.125 60.07421875 99.1875 C60.44921875 96.125 60.44921875 96.125 62.171875 94.43359375 C64.8565743 92.89092777 66.207776 92.89415078 69.26171875 93.125 C74.27698375 93.25056628 77.15163036 92.7895048 81.44921875 90.125 C87.253702 83.72518513 85.80029991 75.24862784 85.44921875 67.125 C84.78921875 67.125 84.12921875 67.125 83.44921875 67.125 C83.07796875 65.701875 83.07796875 65.701875 82.69921875 64.25 C81.77012981 61.06258659 81.77012981 61.06258659 79.44921875 59.8125 C78.45921875 59.4721875 78.45921875 59.4721875 77.44921875 59.125 C76.78921875 58.795 76.12921875 58.465 75.44921875 58.125 C75.3396507 56.3360909 75.24327719 54.54508871 75.22412109 52.75292969 C75.14758836 46.02105053 74.9482499 40.80233515 70.21484375 35.609375 C67.45695424 33.29079533 64.69873748 31.68476899 61.44921875 30.125 C61.29453125 31.6409375 61.29453125 31.6409375 61.13671875 33.1875 C60.09984225 39.12597451 58.43338372 44.45245739 53.44921875 48.125 C47.82085886 50.75885385 43.49686348 51.54040621 37.44921875 50.125 C36.11883527 44.68252212 36.11883527 44.68252212 37.44921875 42.4375 C40.2873115 40.57500164 43.30409514 39.38304944 46.44921875 38.125 C47.10921875 37.795 47.76921875 37.465 48.44921875 37.125 C48.5032357 34.20808475 48.54289941 31.29217276 48.57421875 28.375 C48.59935547 27.1375 48.59935547 27.1375 48.625 25.875 C48.63144531 25.07578125 48.63789063 24.2765625 48.64453125 23.453125 C48.65500488 22.7199707 48.66547852 21.98681641 48.67626953 21.23144531 C48.41699419 18.82603924 47.641478 17.21248506 46.44921875 15.125 C45.78921875 15.125 45.12921875 15.125 44.44921875 15.125 C44.44921875 14.465 44.44921875 13.805 44.44921875 13.125 C43.31484375 12.795 42.18046875 12.465 41.01171875 12.125 C40.37363281 11.939375 39.73554688 11.75375 39.078125 11.5625 C35.25170565 10.92571104 31.32826312 11.125 27.44921875 11.125 C27.44921875 31.255 27.44921875 51.385 27.44921875 72.125 C30.95364012 73.87721068 34.90006306 73.43683537 38.76171875 73.5 C39.61701172 73.53738281 40.47230469 73.57476562 41.35351562 73.61328125 C45.9065089 73.67676218 47.77030478 73.69834558 51.36328125 70.6640625 C52.05164063 69.82617188 52.74 68.98828125 53.44921875 68.125 C56.87853823 67.00522221 58.51850413 66.70862767 61.82421875 68.1875 C63.44921875 70.125 63.44921875 70.125 64.19921875 72.8125 C63.04390034 77.91515632 59.61480245 81.07896236 55.44921875 84.125 C50.17109751 85.47033816 44.92325183 85.30894212 39.51171875 85.3125 C38.53525391 85.32474609 37.55878906 85.33699219 36.55273438 85.34960938 C30.18694851 85.36255674 25.27159807 84.89719166 19.76171875 81.4375 C15.0382168 76.71399805 14.26120662 72.24097853 14.15625 65.75390625 C14.17604536 63.39825833 14.21160815 61.04269806 14.26171875 58.6875 C14.28202148 56.87475586 14.28202148 56.87475586 14.30273438 55.02539062 C14.33791929 52.05812918 14.38715179 49.09180063 14.44921875 46.125 C13.50175781 45.97289062 12.55429688 45.82078125 11.578125 45.6640625 C5.82431194 44.67276886 3.80049371 42.61564654 0.5 37.9765625 C-2.27161227 33.09275501 -1.86513841 27.44084613 -2.06835938 21.96875 C-2.32237331 16.74359819 -2.32237331 16.74359819 -4.55078125 12.125 C-7.67934601 10.56071762 -10.07790256 10.84492914 -13.55078125 11.125 C-18.12272405 12.74108967 -22.27109917 14.68561911 -24.55078125 19.125 C-24.68742187 19.83398438 -24.8240625 20.54296875 -24.96484375 21.2734375 C-25.54176778 23.93417667 -26.05512543 25.83573089 -27.55078125 28.125 C-30.549274 29.40383315 -33.32752068 29.98448517 -36.54296875 30.4921875 C-39.75585462 31.16814531 -41.80522105 32.37434663 -44.55078125 34.125 C-45.21078125 34.125 -45.87078125 34.125 -46.55078125 34.125 C-49.65720686 39.85993959 -52.15255979 45.50543608 -51.55078125 52.125 C-51.28265625 52.805625 -51.01453125 53.48625 -50.73828125 54.1875 C-50.67640625 54.826875 -50.61453125 55.46625 -50.55078125 56.125 C-52.86328125 58.875 -52.86328125 58.875 -55.55078125 61.125 C-56.21078125 61.125 -56.87078125 61.125 -57.55078125 61.125 C-58.2385253 62.44758472 -58.89789498 63.78486503 -59.55078125 65.125 C-60.08703125 66.176875 -60.62328125 67.22875 -61.17578125 68.3125 C-63.26297614 73.32176773 -63.51368981 78.24121231 -61.7890625 83.40625 C-59.95681027 87.44802676 -59.95681027 87.44802676 -56.6953125 90.3359375 C-54.3123692 91.21272174 -52.5201791 91.359625 -49.98828125 91.3125 C-49.22386719 91.30605469 -48.45945313 91.29960938 -47.671875 91.29296875 C-45.36180409 91.19553505 -45.36180409 91.19553505 -42.55078125 90.125 C-42.46917377 88.22989301 -42.41131666 86.33375496 -42.36328125 84.4375 C-42.32847656 83.38175781 -42.29367188 82.32601562 -42.2578125 81.23828125 C-42.58699793 77.74013741 -43.64150208 76.02098675 -45.55078125 73.125 C-45.99378745 69.58095039 -45.78124223 67.63201415 -44.30078125 64.375 C-41.68726974 61.01477091 -39.83958167 60.3211218 -35.67578125 59.6875 C-31.28254415 60.30255319 -29.70512156 62.04401645 -26.55078125 65.125 C-25.14077461 67.94501327 -25.30529674 69.99507255 -25.55078125 73.125 C-27.81548713 77.75735294 -27.81548713 77.75735294 -30.55078125 79.125 C-30.7051539 80.95372213 -30.77297798 82.78998432 -30.80078125 84.625 C-31.24449788 91.15619735 -33.09409178 95.34246767 -37.55078125 100.125 C-42.10704596 103.51570862 -46.6526638 103.5082353 -52.16015625 103.62109375 C-54.68051446 103.87076312 -54.68051446 103.87076312 -55.85546875 105.953125 C-57.08003984 109.77818975 -57.37580817 113.34581152 -55.65234375 117.0625 C-54.64987426 118.76883104 -53.60261144 120.44864564 -52.55078125 122.125 C-52.55078125 122.785 -52.55078125 123.445 -52.55078125 124.125 C-51.89078125 124.125 -51.23078125 124.125 -50.55078125 124.125 C-50.55078125 124.785 -50.55078125 125.445 -50.55078125 126.125 C-49.19730436 126.58536629 -47.84295425 127.04316537 -46.48828125 127.5 C-45.66972656 127.78359375 -44.85117188 128.0671875 -44.0078125 128.359375 C-41.34967398 129.25131771 -41.34967398 129.25131771 -37.67578125 129.75 C-34.55078125 131.125 -34.55078125 131.125 -33.6640625 132.96875 C-33.202323 134.52745445 -32.76858835 136.0946578 -32.359375 137.66796875 C-30.63203328 142.91675108 -27.09548823 147.09519534 -22.55078125 150.125 C-22.55078125 150.785 -22.55078125 151.445 -22.55078125 152.125 C-14.07599342 153.67285849 -14.07599342 153.67285849 -6.30078125 151.0625 C-4.45457258 147.96350688 -3.80057912 145.7054362 -3.55078125 142.125 C-4.12828125 142.0425 -4.70578125 141.96 -5.30078125 141.875 C-8.43719965 140.8295272 -9.64034171 139.85419934 -11.55078125 137.125 C-12.27224429 132.33870865 -12.07947388 128.32427295 -9.55078125 124.125 C-6.11375194 121.57905236 -2.70032013 121.76100536 1.44921875 122.125 C5.01849912 123.58516015 6.23882747 124.795387 8.32421875 128.0625 C9.47543961 131.196379 9.68664557 132.13455186 8.44921875 135.125 C7.47611477 138.04431194 7.23659906 140.6245189 7.00634766 143.67333984 C6.4028587 150.76150375 5.57382489 155.56206093 0.30078125 160.7421875 C-5.56416797 165.12233945 -11.43158587 164.89762585 -18.55078125 164.125 C-28.1597674 161.37957538 -34.93881749 157.27336217 -39.92578125 148.5 C-42.55078125 143.58653846 -42.55078125 143.58653846 -42.55078125 140.125 C-43.35515625 140.063125 -44.15953125 140.00125 -44.98828125 139.9375 C-53.40251466 138.01846431 -59.77732491 133.27871641 -64.55078125 126.125 C-67.96305897 119.50688128 -69.028292 111.26248836 -66.953125 104.046875 C-66.63021484 103.15742188 -66.63021484 103.15742188 -66.30078125 102.25 C-66.05328125 101.21875 -65.80578125 100.1875 -65.55078125 99.125 C-67.33546464 96.35212063 -67.33546464 96.35212063 -69.55078125 94.125 C-69.55078125 93.135 -69.55078125 92.145 -69.55078125 91.125 C-70.21078125 91.125 -70.87078125 91.125 -71.55078125 91.125 C-74.81388001 82.71925759 -75.0725574 72.09813031 -71.92578125 63.5625 C-70.47302789 60.43389187 -68.82199873 58.21082138 -66.42578125 55.75 C-62.86964688 51.98102965 -62.72417738 48.19495108 -62.09765625 43.1953125 C-60.64406016 35.03440875 -56.29723391 28.64720906 -49.703125 23.75390625 C-45.29253106 20.75402251 -41.87140022 19.45753869 -36.55078125 19.125 C-36.36515625 18.25488281 -36.36515625 18.25488281 -36.17578125 17.3671875 C-34.21553736 10.33481253 -29.86368507 6.15320346 -23.83203125 2.3515625 C-16.50649783 -1.58716609 -8.03053503 -2.75473177 0 0 Z " fill="#6403E6" transform="translate(233.55078125,23.875)"/>
<path d="M0 0 C1.89575251 -0.02721176 3.79161979 -0.04649136 5.6875 -0.0625 C6.74324219 -0.07410156 7.79898438 -0.08570312 8.88671875 -0.09765625 C11.72410262 -0.00865425 14.2438919 0.35060162 17 1 C17 1.66 17 2.32 17 3 C17.66 3 18.32 3 19 3 C19 3.66 19 4.32 19 5 C19.78375 4.938125 20.5675 4.87625 21.375 4.8125 C22.674375 4.9053125 22.674375 4.9053125 24 5 C26.18519105 8.27778657 26.26645318 9.3690623 26.34375 13.18359375 C26.37339844 14.19357422 26.40304688 15.20355469 26.43359375 16.24414062 C26.45550781 17.29794922 26.47742188 18.35175781 26.5 19.4375 C26.54345966 21.51972911 26.59521606 23.60180566 26.65625 25.68359375 C26.68428711 27.06889282 26.68428711 27.06889282 26.71289062 28.48217773 C27.00988353 31.08667415 27.68261663 32.7547291 29 35 C30.98 35 32.96 35 35 35 C35 26.42 35 17.84 35 9 C35.66 9 36.32 9 37 9 C37.66 7.35 38.32 5.7 39 4 C39.66 4.33 40.32 4.66 41 5 C41.625 7.5625 41.625 7.5625 42 10 C41.34 10 40.68 10 40 10 C40.495 10.99 40.495 10.99 41 12 C41.11982257 13.87844908 41.17729161 15.76100831 41.20532227 17.64306641 C41.2352401 19.41467636 41.2352401 19.41467636 41.26576233 21.22207642 C41.28247482 22.50230682 41.29918732 23.78253723 41.31640625 25.1015625 C41.33718735 26.40829926 41.35796844 27.71503601 41.37937927 29.06137085 C41.43459294 32.536689 41.48400525 36.01206653 41.53222656 39.48748779 C41.58244677 43.033379 41.63813012 46.5791839 41.69335938 50.125 C41.80093228 57.0832585 41.90237917 64.04159496 42 71 C45.08617486 72.6289075 47.26179746 73.2792999 50.765625 73.4140625 C51.65507812 73.45273438 52.54453125 73.49140625 53.4609375 73.53125 C54.38132812 73.5621875 55.30171875 73.593125 56.25 73.625 C57.18585938 73.66367188 58.12171875 73.70234375 59.0859375 73.7421875 C61.39043054 73.83624844 63.69492013 73.92189399 66 74 C66.26167969 73.21496094 66.52335937 72.42992188 66.79296875 71.62109375 C68 69 68 69 71.3125 67.0625 C75 66 75 66 77.875 66.75 C80 68 80 68 81 69 C81.5625 71.5625 81.5625 71.5625 81 75 C77.33131132 79.87971213 74.10712344 83.06917863 68 84 C64.35599794 84.21242101 60.71213619 84.1851005 57.0625 84.1875 C56.08603516 84.19974609 55.10957031 84.21199219 54.10351562 84.22460938 C47.73772976 84.23755674 42.82237932 83.77219166 37.3125 80.3125 C32.58899805 75.58899805 31.81198787 71.11597853 31.70703125 64.62890625 C31.72682661 62.27325833 31.7623894 59.91769806 31.8125 57.5625 C31.83280273 55.74975586 31.83280273 55.74975586 31.85351562 53.90039062 C31.88870054 50.93312918 31.93793304 47.96680063 32 45 C31.05253906 44.84789062 30.10507813 44.69578125 29.12890625 44.5390625 C23.37509319 43.54776886 21.35127496 41.49064654 18.05078125 36.8515625 C15.27916898 31.96775501 15.68564284 26.31584613 15.48242188 20.84375 C15.22840794 15.61859819 15.22840794 15.61859819 13 11 C12.34 10.67 11.68 10.34 11 10 C11 9.34 11 8.68 11 8 C9.4221875 8.0928125 9.4221875 8.0928125 7.8125 8.1875 C3.84183507 7.9922214 2.15803031 7.29674932 -1 5 C-0.67 3.35 -0.34 1.7 0 0 Z " fill="#6902F1" transform="translate(216,25)"/>
<path d="M0 0 C0.66 0.33 1.32 0.66 2 1 C2 1.66 2 2.32 2 3 C2.66 3 3.32 3 4 3 C6.46270288 6.69405432 6.22985417 8.63277072 6 13 C5.731875 13.70125 5.46375 14.4025 5.1875 15.125 C4.75294093 17.27052709 4.75294093 17.27052709 6.9375 19.4375 C9.82709454 21.855324 12.62234061 23.64728476 15.9375 25.3984375 C20.04123237 28.58504787 22.60967097 31.64646051 23.46142578 36.78222656 C23.63672322 40.01526332 23.63282382 43.20070353 23.5625 46.4375 C23.57345703 47.53126953 23.58441406 48.62503906 23.59570312 49.75195312 C23.53377595 56.60935526 22.5842639 61.13548869 19 67 C18.34 67 17.68 67 17 67 C17 67.66 17 68.32 17 69 C12.23789443 71.06657412 8.45195752 72.14457772 3.25 72.375 C-0.36831157 72.65101545 -1.68211024 72.77082366 -4.6875 74.9375 C-6.30248194 78.7057912 -6.12162713 81.58094879 -5.953125 85.625 C-6.01617583 88.81957559 -6.95703333 90.57870617 -9 93 C-12.69720147 95.46480098 -15.71155966 95.7842673 -20 95 C-23 93.0625 -23 93.0625 -25 90 C-25.62895241 86.87193581 -25.6382873 84.12702216 -25 81 C-23.17731448 78.46125945 -21.87546908 77.35565932 -19 76.1875 C-15.77658667 74.27359834 -14.70513392 71.28847256 -13 68 C-12.34 68 -11.68 68 -11 68 C-11 67.34 -11 66.68 -11 66 C-6.37279232 62.17562015 -2.51573958 61.26131193 3.375 60.75 C4.11105469 60.67265625 4.84710938 60.5953125 5.60546875 60.515625 C7.40217018 60.32895472 9.20094113 60.16238536 11 60 C12.43879164 55.68362508 12.22452634 51.52157417 12.25 47 C12.270625 46.08476563 12.29125 45.16953125 12.3125 44.2265625 C12.31765625 43.34742188 12.3228125 42.46828125 12.328125 41.5625 C12.3374707 40.75941406 12.34681641 39.95632812 12.35644531 39.12890625 C11.90831317 36.452391 11.11173427 35.65703119 9 34 C7.9275 33.443125 6.855 32.88625 5.75 32.3125 C1.24225193 29.84236939 -2.03637061 26.16169234 -5 22 C-5 21.34 -5 20.68 -5 20 C-5.721875 19.938125 -6.44375 19.87625 -7.1875 19.8125 C-11.02257696 18.70458888 -12.59272465 17.16384761 -15 14 C-15.52512999 9.72394153 -15.34396354 6.66244303 -13 3 C-12.34 3 -11.68 3 -11 3 C-11 2.34 -11 1.68 -11 1 C-7.22482858 -1.56711656 -4.33016827 -0.88207131 0 0 Z " fill="#6902F2" transform="translate(220,54)"/>
<path d="M0 0 C0 0.66 0 1.32 0 2 C0.556875 2.061875 1.11375 2.12375 1.6875 2.1875 C6.59969425 3.91340609 10.03617864 8.87182025 13 13 C13.34227417 14.33106622 13.67751743 15.66400079 14 17 C14.99 17.66 15.98 18.32 17 19 C15.35 18.67 13.7 18.34 12 18 C12 16.68 12 15.36 12 14 C11.01 13.67 10.02 13.34 9 13 C6.45998483 15.94769793 5.62407473 17.77717358 5.55859375 21.66015625 C5.53216797 22.53607422 5.50574219 23.41199219 5.47851562 24.31445312 C5.45821289 25.67473633 5.45821289 25.67473633 5.4375 27.0625 C5.40303692 28.86606801 5.36041612 30.66950353 5.30859375 32.47265625 C5.29626709 33.26937744 5.28394043 34.06609863 5.27124023 34.88696289 C5 37 5 37 3 40 C5.8684413 42.10232344 5.8684413 42.10232344 9 43 C9 42.01 9 41.02 9 40 C9.66 40 10.32 40 11 40 C11 37.69 11 35.38 11 33 C11.66 33 12.32 33 13 33 C13 31.35 13 29.7 13 28 C14.65 28 16.3 28 18 28 C18.495 28.99 18.495 28.99 19 30 C17.68 29.67 16.36 29.34 15 29 C14.8453125 30.5159375 14.8453125 30.5159375 14.6875 32.0625 C13.6506235 38.00097451 11.98416497 43.32745739 7 47 C1.37164011 49.63385385 -2.95235527 50.41540621 -9 49 C-10.33038348 43.55752212 -10.33038348 43.55752212 -9 41.3125 C-6.16190725 39.45000164 -3.14512361 38.25804944 0 37 C0.66 36.67 1.32 36.34 2 36 C2.05401695 33.08308475 2.09368066 30.16717276 2.125 27.25 C2.14175781 26.425 2.15851563 25.6 2.17578125 24.75 C2.18222656 23.95078125 2.18867188 23.1515625 2.1953125 22.328125 C2.20578613 21.5949707 2.21625977 20.86181641 2.22705078 20.10644531 C1.96777544 17.70103924 1.19225925 16.08748506 0 14 C-0.66 14 -1.32 14 -2 14 C-2 13.34 -2 12.68 -2 12 C-3.7015625 11.505 -3.7015625 11.505 -5.4375 11 C-6.07558594 10.814375 -6.71367187 10.62875 -7.37109375 10.4375 C-11.1975131 9.80071104 -15.12095563 10 -19 10 C-19 30.13 -19 50.26 -19 71 C-16.70691037 72.14654482 -15.20090344 72.19729117 -12.6484375 72.31640625 C-11.79765625 72.35830078 -10.946875 72.40019531 -10.0703125 72.44335938 C-9.18085938 72.48267578 -8.29140625 72.52199219 -7.375 72.5625 C-6.02921875 72.62727539 -6.02921875 72.62727539 -4.65625 72.69335938 C-2.43765717 72.79956861 -0.2189512 72.90161194 2 73 C2 73.33 2 73.66 2 74 C-1.22899426 74.0875127 -4.45768116 74.14056146 -7.6875 74.1875 C-8.59951172 74.21263672 -9.51152344 74.23777344 -10.45117188 74.26367188 C-11.78051758 74.27817383 -11.78051758 74.27817383 -13.13671875 74.29296875 C-13.94842529 74.3086792 -14.76013184 74.32438965 -15.59643555 74.34057617 C-18.75713122 73.89271731 -20.47336008 72.95493072 -23 71 C-23.63923645 68.32344055 -23.63923645 68.32344055 -23.65942383 65.05981445 C-23.67906693 63.83877518 -23.69871002 62.6177359 -23.71894836 61.35969543 C-23.71501572 60.04087875 -23.71108307 58.72206207 -23.70703125 57.36328125 C-23.72014593 55.9999114 -23.73544947 54.63656098 -23.75285339 53.27323914 C-23.79274503 49.68762997 -23.80289633 46.10252854 -23.80688477 42.51672363 C-23.81620865 38.85669511 -23.85361727 35.1969659 -23.88867188 31.53710938 C-23.95328965 24.35807049 -23.98649505 17.17933626 -24 10 C-23.34 10 -22.68 10 -22 10 C-22.66 8.35 -23.32 6.7 -24 5 C-24.45375 5.66 -24.9075 6.32 -25.375 7 C-25.91125 7.66 -26.4475 8.32 -27 9 C-27.66 9 -28.32 9 -29 9 C-28.67 17.58 -28.34 26.16 -28 35 C-31.16098841 36.0536628 -32.00887259 36.21514551 -35 35 C-37.76735566 32.00430911 -38.3668862 30.05644571 -38.29296875 26.015625 C-38.28330078 25.08105469 -38.27363281 24.14648438 -38.26367188 23.18359375 C-38.23853516 22.21550781 -38.21339844 21.24742188 -38.1875 20.25 C-38.17396484 19.26644531 -38.16042969 18.28289063 -38.14648438 17.26953125 C-38.11118726 14.84579585 -38.06188054 12.42317855 -38 10 C-37.67 10 -37.34 10 -37 10 C-36.9906543 10.59014893 -36.98130859 11.18029785 -36.97167969 11.78833008 C-36.91797343 14.46390205 -36.83433148 17.13772553 -36.75 19.8125 C-36.73582031 20.74126953 -36.72164062 21.67003906 -36.70703125 22.62695312 C-36.67480469 23.51962891 -36.64257812 24.41230469 -36.609375 25.33203125 C-36.58842773 26.15421143 -36.56748047 26.9763916 -36.54589844 27.82348633 C-35.82117061 30.71299821 -34.47824829 31.47376173 -32 33 C-32.02618408 32.41621582 -32.05236816 31.83243164 -32.0793457 31.23095703 C-32.95129829 8.86923633 -32.95129829 8.86923633 -27 2 C-20.26238618 -4.15173436 -7.97165597 -3.8178429 0 0 Z " fill="#6105DD" transform="translate(280,25)"/>
<path d="M0 0 C0.495 1.98 0.495 1.98 1 4 C0.01 4.33 -0.98 4.66 -2 5 C-2 5.99 -2 6.98 -2 8 C-3.32 8 -4.64 8 -6 8 C-6 8.66 -6 9.32 -6 10 C-10.95 10 -15.9 10 -21 10 C-21 11.98 -21 13.96 -21 16 C-19.79601562 15.97679688 -18.59203125 15.95359375 -17.3515625 15.9296875 C-15.77604785 15.91093137 -14.20052652 15.89273101 -12.625 15.875 C-11.8309375 15.85824219 -11.036875 15.84148437 -10.21875 15.82421875 C-8.14507985 15.80664527 -6.07116759 15.89664832 -4 16 C-1.31907309 18.68092691 -1.61329743 20.39167363 -1.375 24.125 C-1.30023438 25.22070312 -1.22546875 26.31640625 -1.1484375 27.4453125 C-1.09945312 28.28835937 -1.05046875 29.13140625 -1 30 C0.65 29.67 2.3 29.34 4 29 C4.33 25.37 4.66 21.74 5 18 C5.66 18.33 6.32 18.66 7 19 C7.57418978 29.31946623 6.67957535 36.48521696 0.3125 44.75 C-3.71790755 49.1588976 -8.95119518 52.0293043 -14.61328125 53.83203125 C-17.70032505 55.34271226 -18.26725192 56.76233943 -19.625 59.875 C-21.12333726 63.24374484 -22.5510099 66.21411179 -25 69 C-25.66 69 -26.32 69 -27 69 C-27 69.66 -27 70.32 -27 71 C-28.5390625 72.21875 -28.5390625 72.21875 -30.625 73.5 C-31.29789062 73.9228125 -31.97078125 74.345625 -32.6640625 74.78125 C-38.07644201 77.60510018 -43.01578641 78.34072929 -49.0625 78.3125 C-49.75666016 78.32861328 -50.45082031 78.34472656 -51.16601562 78.36132812 C-55.63670351 78.36557379 -58.4006897 77.65913958 -62 75 C-61.01 74.505 -61.01 74.505 -60 74 C-59.01 74.33 -58.02 74.66 -57 75 C-54.48818571 75.09617307 -52.01083378 75.13934762 -49.5 75.125 C-48.82324219 75.12886719 -48.14648438 75.13273437 -47.44921875 75.13671875 C-44.35926233 75.13062416 -41.95320689 74.9844023 -39 74 C-39 73.34 -39 72.68 -39 72 C-42.60409116 70.19795442 -46.85888879 70.58987836 -50.8359375 70.37890625 C-53.75706309 70.02909245 -55.51735686 69.51037649 -58 68 C-57.67 66.68 -57.34 65.36 -57 64 C-57 64.66 -57 65.32 -57 66 C-47.93829296 67.38257663 -42.3720244 66.94270873 -34.75 61.8125 C-30.66977708 57.63954474 -28.54873212 53.27934882 -27.1875 47.625 C-26.795625 46.75875 -26.40375 45.8925 -26 45 C-22.9375 43.875 -22.9375 43.875 -21.06640625 43.47265625 C-15.59851511 42.22196659 -10.53633959 40.23685861 -7 35.75 C-3.45256828 30.03741168 -3.80801814 24.46420934 -5 18 C-6.20398438 18.02320313 -7.40796875 18.04640625 -8.6484375 18.0703125 C-10.22395215 18.08906863 -11.79947348 18.10726899 -13.375 18.125 C-14.1690625 18.14175781 -14.963125 18.15851563 -15.78125 18.17578125 C-17.85492015 18.19335473 -19.92883241 18.10335168 -22 18 C-24 16 -24 16 -24.375 13.0625 C-24 10 -24 10 -22.27734375 8.30859375 C-19.59264445 6.76592777 -18.24144275 6.76915078 -15.1875 7 C-10.22661079 7.14633891 -7.31588806 6.46622175 -3 4 C-1.07663031 1.97053147 -1.07663031 1.97053147 0 0 Z " fill="#5E05D6" transform="translate(318,110)"/>
<path d="M0 0 C3.3 0 6.6 0 10 0 C10.65134925 1.56020867 11.29582964 3.12328579 11.9375 4.6875 C12.29714844 5.55761719 12.65679687 6.42773438 13.02734375 7.32421875 C13.9570312 9.88179265 14.54162625 12.3221323 15 15 C15.66 15 16.32 15 17 15 C17.0825 14.195625 17.165 13.39125 17.25 12.5625 C18.20196675 8.04065795 20.01580179 4.15297299 22 0 C24.97 0 27.94 0 31 0 C31 8.58 31 17.16 31 26 C28.69 26 26.38 26 24 26 C24 21.71 24 17.42 24 13 C22.35 17.29 20.7 21.58 19 26 C16.69 26 14.38 26 12 26 C10.68 22.37 9.36 18.74 8 15 C7.67 18.63 7.34 22.26 7 26 C4.69 26 2.38 26 0 26 C0 17.42 0 8.84 0 0 Z " fill="#D0CFD0" transform="translate(284,199)"/>
<path d="M0 0 C0.66 0.33 1.32 0.66 2 1 C2 1.66 2 2.32 2 3 C2.66 3 3.32 3 4 3 C6.46270288 6.69405432 6.22985417 8.63277072 6 13 C5.731875 13.70125 5.46375 14.4025 5.1875 15.125 C4.75294093 17.27052709 4.75294093 17.27052709 6.9375 19.4375 C9.82709454 21.855324 12.62234061 23.64728476 15.9375 25.3984375 C20.0749539 28.61123314 22.64159138 31.63629721 23.42919922 36.83056641 C23.56406479 40.10958101 23.53453531 43.34482587 23.4375 46.625 C23.43169922 47.74390625 23.42589844 48.8628125 23.41992188 50.015625 C23.34265279 55.19574462 23.17341364 59.23163585 21 64 C20.67 64 20.34 64 20 64 C20 53.77 20 43.54 20 33 C18.68 32.34 17.36 31.68 16 31 C16 30.01 16 29.02 16 28 C14.02 27.34 12.04 26.68 10 26 C10 25.34 10 24.68 10 24 C9.34 24 8.68 24 8 24 C8 26.64 8 29.28 8 32 C9.2065625 32.185625 9.2065625 32.185625 10.4375 32.375 C11.283125 32.58125 12.12875 32.7875 13 33 C15.00496724 37.00993448 14.22877884 42.09130412 14.25 46.5 C14.270625 47.57121094 14.29125 48.64242187 14.3125 49.74609375 C14.31765625 50.76832031 14.3228125 51.79054687 14.328125 52.84375 C14.34214355 54.25430664 14.34214355 54.25430664 14.35644531 55.69335938 C14.18000488 56.83514648 14.18000488 56.83514648 14 58 C13.01 58.66 12.02 59.32 11 60 C11.33 59.01 11.66 58.02 12 57 C12.2519693 53.67095111 12.2311966 50.33760403 12.25 47 C12.270625 46.08476563 12.29125 45.16953125 12.3125 44.2265625 C12.31765625 43.34742188 12.3228125 42.46828125 12.328125 41.5625 C12.3374707 40.75941406 12.34681641 39.95632812 12.35644531 39.12890625 C11.90831317 36.452391 11.11173427 35.65703119 9 34 C7.9275 33.443125 6.855 32.88625 5.75 32.3125 C1.24225193 29.84236939 -2.03637061 26.16169234 -5 22 C-5 21.34 -5 20.68 -5 20 C-5.721875 19.938125 -6.44375 19.87625 -7.1875 19.8125 C-11.02257696 18.70458888 -12.59272465 17.16384761 -15 14 C-15.52512999 9.72394153 -15.34396354 6.66244303 -13 3 C-12.34 3 -11.68 3 -11 3 C-11 2.34 -11 1.68 -11 1 C-7.22482858 -1.56711656 -4.33016827 -0.88207131 0 0 Z " fill="#6403E7" transform="translate(220,54)"/>
<path d="M0 0 C0.74378906 0.09667969 1.48757813 0.19335938 2.25390625 0.29296875 C4.54513073 0.83810803 6.38054209 1.67907421 8.4375 2.8125 C8.4375 4.1325 8.4375 5.4525 8.4375 6.8125 C10.9125 7.3075 10.9125 7.3075 13.4375 7.8125 C13.7675 9.4625 14.0975 11.1125 14.4375 12.8125 C11.08794556 13.92901815 9.76490404 13.81072121 6.4375 12.8125 C5.963125 12.3175 5.48875 11.8225 5 11.3125 C3.06224456 9.16976264 3.06224456 9.16976264 -2.5625 8.8125 C-2.2325 25.9725 -1.9025 43.1325 -1.5625 60.8125 C-6.5625 61.8125 -6.5625 61.8125 -8.5625 60.8125 C-8.99421757 52.48241772 -9.31568688 44.15004655 -9.5625 35.8125 C-9.58372925 35.10152161 -9.6049585 34.39054321 -9.62683105 33.65802002 C-9.75571749 29.15899295 -9.84905839 24.66090725 -9.90454102 20.16036987 C-9.92649548 18.6796833 -9.957244 17.19910075 -9.99682617 15.71878052 C-10.05062529 13.62716354 -10.07220637 11.53752572 -10.0859375 9.4453125 C-10.10575684 8.23762207 -10.12557617 7.02993164 -10.14599609 5.78564453 C-9.5625 2.8125 -9.5625 2.8125 -7.17456055 0.90698242 C-4.38521677 -0.26178364 -2.95834074 -0.43731994 0 0 Z " fill="#6C01F9" transform="translate(259.5625,116.1875)"/>
<path d="M0 0 C2.97 0 5.94 0 9 0 C11.28750857 2.46009152 12.54280063 4.13222487 14.0625 7 C14.64547852 8.00160156 14.64547852 8.00160156 15.24023438 9.0234375 C16.19016448 10.665292 17.09930564 12.33062794 18 14 C18 9.38 18 4.76 18 0 C20.31 0 22.62 0 25 0 C25 8.58 25 17.16 25 26 C22.36 26 19.72 26 17 26 C14.50390625 23.41015625 14.50390625 23.41015625 12.5625 20.0625 C11.90378906 18.96035156 11.24507813 17.85820312 10.56640625 16.72265625 C9.79103516 15.37494141 9.79103516 15.37494141 9 14 C8.67 13.67 8.34 13.34 8 13 C7.67 17.29 7.34 21.58 7 26 C4.69 26 2.38 26 0 26 C0 17.42 0 8.84 0 0 Z " fill="#D2D1D2" transform="translate(329,199)"/>
<path d="M0 0 C8 0 8 0 9.875 1.20703125 C13 5.66666667 13 5.66666667 13 9 C13.66 9 14.32 9 15 9 C15.66 10.32 16.32 11.64 17 13 C17.33 8.71 17.66 4.42 18 0 C19.98 0 21.96 0 24 0 C24.99259618 2.97778854 25.12891582 4.96242951 25.1328125 8.0703125 C25.13474609 9.53791016 25.13474609 9.53791016 25.13671875 11.03515625 C25.13285156 12.05480469 25.12898438 13.07445312 25.125 14.125 C25.13080078 15.66607422 25.13080078 15.66607422 25.13671875 17.23828125 C25.13542969 18.21410156 25.13414062 19.18992188 25.1328125 20.1953125 C25.13168457 21.09266113 25.13055664 21.99000977 25.12939453 22.91455078 C25 25 25 25 24 26 C21.32941149 26.14115161 18.67567762 26.04247107 16 26 C15.51080078 25.09507812 15.51080078 25.09507812 15.01171875 24.171875 C14.57472656 23.37265625 14.13773437 22.5734375 13.6875 21.75 C13.25824219 20.96109375 12.82898438 20.1721875 12.38671875 19.359375 C10.85141522 16.64646472 10.85141522 16.64646472 8 13 C7.67 17.29 7.34 21.58 7 26 C4.69 26 2.38 26 0 26 C0 17.42 0 8.84 0 0 Z " fill="#D5D4D5" transform="translate(256,199)"/>
<path d="M0 0 C2.371875 -0.04125 4.74375 -0.0825 7.1875 -0.125 C7.92508545 -0.14320801 8.6626709 -0.16141602 9.42260742 -0.18017578 C13.40426513 -0.21351309 16.49454571 0.06463035 20 2 C22.1202151 5.18032265 22.2495865 5.54567399 21.75 9.0625 C21.66234375 9.75472656 21.5746875 10.44695312 21.484375 11.16015625 C21 13 21 13 19 15 C19.474375 15.70125 19.94875 16.4025 20.4375 17.125 C22.08739857 20.16081337 22.60368464 22.59168786 23 26 C20.36 26 17.72 26 15 26 C14.79375 24.88625 14.5875 23.7725 14.375 22.625 C13.38371699 18.73400805 13.38371699 18.73400805 9.875 17.5625 C8.92625 17.376875 7.9775 17.19125 7 17 C7 19.97 7 22.94 7 26 C4.69 26 2.38 26 0 26 C0 17.42 0 8.84 0 0 Z M7 6 C7 7.98 7 9.96 7 12 C9.91652174 12.16681109 9.91652174 12.16681109 13 12 C13.66 11.34 14.32 10.68 15 10 C14.6814823 7.89179203 14.6814823 7.89179203 14 6 C11.69 6 9.38 6 7 6 Z " fill="#D1D0D1" transform="translate(231,199)"/>
<path d="M0 0 C0.83265381 0.00523682 1.66530762 0.01047363 2.52319336 0.01586914 C3.42231445 0.0190918 4.32143555 0.02231445 5.24780273 0.02563477 C6.66609375 0.03820312 6.66609375 0.03820312 8.11303711 0.05102539 C9.06243164 0.05553711 10.01182617 0.06004883 10.98999023 0.06469727 C13.34356776 0.07652429 15.69702188 0.09300514 18.05053711 0.11352539 C18.05053711 2.09352539 18.05053711 4.07352539 18.05053711 6.11352539 C11.61553711 6.60852539 11.61553711 6.60852539 5.05053711 7.11352539 C4.72053711 8.10352539 4.39053711 9.09352539 4.05053711 10.11352539 C8.01053711 10.11352539 11.97053711 10.11352539 16.05053711 10.11352539 C16.05053711 11.76352539 16.05053711 13.41352539 16.05053711 15.11352539 C10.60553711 15.60852539 10.60553711 15.60852539 5.05053711 16.11352539 C4.72053711 17.43352539 4.39053711 18.75352539 4.05053711 20.11352539 C8.67053711 20.11352539 13.29053711 20.11352539 18.05053711 20.11352539 C18.05053711 22.09352539 18.05053711 24.07352539 18.05053711 26.11352539 C14.73805524 26.14240686 11.42560544 26.16028338 8.11303711 26.17602539 C7.16750977 26.1844043 6.22198242 26.1927832 5.24780273 26.20141602 C3.89912109 26.20625 3.89912109 26.20625 2.52319336 26.21118164 C1.27421265 26.21903687 1.27421265 26.21903687 0 26.22705078 C-1.94946289 26.11352539 -1.94946289 26.11352539 -2.94946289 25.11352539 C-3.04892742 23.34493346 -3.08026506 21.57241088 -3.08227539 19.80102539 C-3.08356445 18.72594727 -3.08485352 17.65086914 -3.08618164 16.54321289 C-3.08038086 14.84551758 -3.08038086 14.84551758 -3.07446289 13.11352539 C-3.07833008 11.98172852 -3.08219727 10.84993164 -3.08618164 9.68383789 C-3.08489258 8.60875977 -3.08360352 7.53368164 -3.08227539 6.42602539 C-3.08114746 5.4321582 -3.08001953 4.43829102 -3.07885742 3.41430664 C-2.91753099 0.54574013 -2.86645481 0.16692567 0 0 Z " fill="#CCCBCD" transform="translate(210.949462890625,198.886474609375)"/>
<path d="M0 0 C13 0 13 0 19 2 C22.62743128 6.43438104 22.55500454 10.58677986 22.42578125 16.109375 C21.77849006 20.50382895 20.33571427 22.12973424 17 25 C11.57364835 26.80878388 5.66885438 26.05200784 0 26 C0 17.42 0 8.84 0 0 Z M6 6 C6 10.62 6 15.24 6 20 C8.31 20 10.62 20 13 20 C15.07358419 16.88962372 15.29487123 16.00438748 15.3125 12.4375 C15.32925781 11.65246094 15.34601563 10.86742187 15.36328125 10.05859375 C15.24339844 9.37925781 15.12351562 8.69992188 15 8 C11.76887492 5.4452998 11.76887492 5.4452998 6 6 Z " fill="#DDDCDD" transform="translate(358,199)"/>
<path d="M0 0 C2.92937654 1.81310142 5.43647949 3.87295899 7 7 C7.41314256 11.6478538 6.78987316 14.24440152 4 18 C3.34 18.33 2.68 18.66 2 19 C1.53101037 21.8159849 1.53101037 21.8159849 1.375 25.0625 C1.30023438 26.16722656 1.22546875 27.27195312 1.1484375 28.41015625 C1.09945312 29.26480469 1.05046875 30.11945313 1 31 C-0.32 31 -1.64 31 -3 31 C-3 32.32 -3 33.64 -3 35 C-4.32 35 -5.64 35 -7 35 C-8.3811869 30.52265247 -8.37089565 25.86828803 -8.60546875 21.22460938 C-8.51170272 17.82122833 -8.51170272 17.82122833 -10 15 C-10.12535652 13.39951798 -10.17574787 11.79284072 -10.1875 10.1875 C-10.20167969 9.31480469 -10.21585938 8.44210938 -10.23046875 7.54296875 C-9.98683449 4.85473305 -9.44881927 3.26219148 -8 1 C-5.09704195 -0.45147903 -3.22738221 -0.37239025 0 0 Z M-10 31 C-8 32 -8 32 -8 32 Z " fill="#6B03F6" transform="translate(201,84)"/>
<path d="M0 0 C1.23556641 0.01740234 1.23556641 0.01740234 2.49609375 0.03515625 C3.32238281 0.04417969 4.14867187 0.05320313 5 0.0625 C5.63808594 0.07410156 6.27617187 0.08570313 6.93359375 0.09765625 C8.96026936 5.32434598 10.82243536 10.60095567 12.62109375 15.91015625 C12.84756592 16.56830322 13.07403809 17.2264502 13.30737305 17.90454102 C14.26869329 20.76789939 14.93359375 23.05453457 14.93359375 26.09765625 C12.29359375 26.09765625 9.65359375 26.09765625 6.93359375 26.09765625 C6.93359375 24.44765625 6.93359375 22.79765625 6.93359375 21.09765625 C3.96359375 21.09765625 0.99359375 21.09765625 -2.06640625 21.09765625 C-2.39640625 22.74765625 -2.72640625 24.39765625 -3.06640625 26.09765625 C-5.37640625 26.09765625 -7.68640625 26.09765625 -10.06640625 26.09765625 C-10.60934086 20.9397775 -9.13398626 17.34491797 -7.15234375 12.70703125 C-5.80237963 9.46323256 -4.73339186 6.16198482 -3.6796875 2.8125 C-2.81048103 0.38204368 -2.63147448 0.1243608 0 0 Z M1.93359375 7.09765625 C1.27359375 10.06765625 0.61359375 13.03765625 -0.06640625 16.09765625 C1.58359375 16.09765625 3.23359375 16.09765625 4.93359375 16.09765625 C4.27359375 13.12765625 3.61359375 10.15765625 2.93359375 7.09765625 C2.60359375 7.09765625 2.27359375 7.09765625 1.93359375 7.09765625 Z " fill="#D5D4D5" transform="translate(151.06640625,198.90234375)"/>
<path d="M0 0 C1.89575251 -0.02721176 3.79161979 -0.04649136 5.6875 -0.0625 C6.74324219 -0.07410156 7.79898438 -0.08570312 8.88671875 -0.09765625 C11.72410262 -0.00865425 14.2438919 0.35060162 17 1 C17 1.66 17 2.32 17 3 C17.66 3 18.32 3 19 3 C19 3.66 19 4.32 19 5 C19.78375 4.938125 20.5675 4.87625 21.375 4.8125 C22.674375 4.9053125 22.674375 4.9053125 24 5 C26.19031101 8.28546652 26.26674371 9.39233385 26.34375 13.21875 C26.37339844 14.23324219 26.40304688 15.24773438 26.43359375 16.29296875 C26.47786458 18.43098958 26.52213542 20.56901042 26.56640625 22.70703125 C26.59605469 23.72152344 26.62570313 24.73601563 26.65625 25.78125 C26.68428711 27.1744043 26.68428711 27.1744043 26.71289062 28.59570312 C26.84739676 31.26090109 26.84739676 31.26090109 29 34 C28.05125 34.144375 27.1025 34.28875 26.125 34.4375 C23.1065506 34.82935399 23.1065506 34.82935399 21 36 C21 35.34 21 34.68 21 34 C20.01 34 19.02 34 18 34 C17.505 22.615 17.505 22.615 17 11 C12.26118281 9.42039427 8.0357262 8.38788081 3.171875 7.5625 C1 7 1 7 -1 5 C-0.625 2.375 -0.625 2.375 0 0 Z " fill="#6B02F8" transform="translate(216,25)"/>
<path d="M0 0 C1.23234375 -0.02578125 2.4646875 -0.0515625 3.734375 -0.078125 C7.49052044 0.27244857 9.28730011 0.96936052 12.25 3.25 C14.75031654 7.00047482 14.78603554 8.80856266 14.25 13.25 C12.0772578 15.88016161 10.30326212 17.72336894 7.25 19.25 C4.5776379 19.38415472 1.92749512 19.29318541 -0.75 19.25 C-0.75 21.56 -0.75 23.87 -0.75 26.25 C-3.06 26.25 -5.37 26.25 -7.75 26.25 C-7.77886751 22.10418113 -7.79675327 17.95838784 -7.8125 13.8125 C-7.82087891 12.62849609 -7.82925781 11.44449219 -7.83789062 10.22460938 C-7.84111328 9.09990234 -7.84433594 7.97519531 -7.84765625 6.81640625 C-7.85289307 5.77427979 -7.85812988 4.73215332 -7.86352539 3.65844727 C-7.63315204 -1.22893582 -4.16716159 0.05187338 0 0 Z M-0.75 6.25 C-0.75 8.56 -0.75 10.87 -0.75 13.25 C2.16652174 13.41681109 2.16652174 13.41681109 5.25 13.25 C5.91 12.59 6.57 11.93 7.25 11.25 C6.92958603 8.64719432 6.92958603 8.64719432 6.25 6.25 C3.94 6.25 1.63 6.25 -0.75 6.25 Z " fill="#DBDBDB" transform="translate(127.75,198.75)"/>
<path d="M0 0 C8.22881059 2.90057691 12.4423833 9.32329126 16.08203125 16.79296875 C17 19 17 19 17 21 C18.32 21.33 19.64 21.66 21 22 C21 22.66 21 23.32 21 24 C22.11375 24.144375 23.2275 24.28875 24.375 24.4375 C28 25 28 25 30 26 C30.36506379 31.47595682 30.36506379 31.47595682 28.7890625 33.73828125 C27 35 27 35 24.73046875 34.9609375 C19.77831031 33.81988717 15.44574985 32.57385518 11 30 C11 29.34 11 28.68 11 28 C10.34 28 9.68 28 9 28 C7.5625 25.98828125 7.5625 25.98828125 6 23.3125 C5.484375 22.44238281 4.96875 21.57226562 4.4375 20.67578125 C3 18 3 18 1.9765625 15.21875 C1.65429688 14.4865625 1.33203125 13.754375 1 13 C-1.54775306 12.10613836 -1.54775306 12.10613836 -4 12 C-4 11.34 -4 10.68 -4 10 C1.75 10.75 1.75 10.75 4 13 C5.97080157 13.74276031 5.97080157 13.74276031 8 14 C8.66 13.67 9.32 13.34 10 13 C10 12.01 10 11.02 10 10 C8.35 9.34 6.7 8.68 5 8 C5 6.68 5 5.36 5 4 C-1.5344529 1.90897507 -6.53816611 0.95913699 -13 4 C-12.67 3.01 -12.34 2.02 -12 1 C-8.28071214 -0.85964393 -4.05879968 -0.43878915 0 0 Z " fill="#5F04DB" transform="translate(263,115)"/>
<path d="M0 0 C2.5 1 2.5 1 4 3 C4.48997712 6.47244654 4.59977041 9.80045919 3 13 C2.76970044 15.37123246 2.58880058 17.74741943 2.4375 20.125 C2.35371094 21.40632813 2.26992187 22.68765625 2.18359375 24.0078125 C2.12300781 24.99523437 2.06242188 25.98265625 2 27 C1.01 27.33 0.02 27.66 -1 28 C-1 29.65 -1 31.3 -1 33 C-3.475 33.495 -3.475 33.495 -6 34 C-6 34.66 -6 35.32 -6 36 C-8.97 36.495 -8.97 36.495 -12 37 C-12 35.02 -12 33.04 -12 31 C-10.68 30.67 -9.36 30.34 -8 30 C-8 29.34 -8 28.68 -8 28 C-7.34 27.67 -6.68 27.34 -6 27 C-5.31068656 24.65092125 -5.31068656 24.65092125 -4.875 21.9375 C-4.70742187 21.01839844 -4.53984375 20.09929687 -4.3671875 19.15234375 C-4.24601563 18.44207031 -4.12484375 17.73179687 -4 17 C-5.423125 16.690625 -5.423125 16.690625 -6.875 16.375 C-10 15 -10 15 -11.4375 12.3125 C-12.08130677 8.52119345 -11.93208624 5.72834497 -11 2 C-7.28540129 -0.47639914 -4.30281421 -0.52811201 0 0 Z " fill="#6C02F9" transform="translate(236,148)"/>
<path d="M0 0 C0.33 1.32 0.66 2.64 1 4 C0.01 4.33 -0.98 4.66 -2 5 C-2 5.99 -2 6.98 -2 8 C-3.32 8 -4.64 8 -6 8 C-6 8.66 -6 9.32 -6 10 C-10.95 10 -15.9 10 -21 10 C-21 11.98 -21 13.96 -21 16 C-19.79601562 15.97679688 -18.59203125 15.95359375 -17.3515625 15.9296875 C-15.77604785 15.91093137 -14.20052652 15.89273101 -12.625 15.875 C-11.8309375 15.85824219 -11.036875 15.84148437 -10.21875 15.82421875 C-8.14507985 15.80664527 -6.07116759 15.89664832 -4 16 C-1.31907309 18.68092691 -1.61329743 20.39167363 -1.375 24.125 C-1.30023438 25.22070312 -1.22546875 26.31640625 -1.1484375 27.4453125 C-1.09945313 28.28835937 -1.05046875 29.13140625 -1 30 C0.65 29.67 2.3 29.34 4 29 C4.33 25.37 4.66 21.74 5 18 C5.66 18.33 6.32 18.66 7 19 C7.59150131 29.63059304 6.69049904 36.82271323 -0.25 45.0625 C-1.15603452 46.05151293 -2.06879414 47.03464992 -3 48 C-3.66 47.67 -4.32 47.34 -5 47 C-5 45.35 -5 43.7 -5 42 C-8.45432106 42.41451853 -11.63726741 42.87651656 -14.9375 44 C-18.6534437 45.21336937 -22.11506079 45.59810974 -26 46 C-25.67 45.34 -25.34 44.68 -25 44 C-23.10185872 43.47015075 -21.17967284 43.02505412 -19.25 42.625 C-13.29955997 41.21327046 -10.03710147 39.61913047 -6.25 34.75 C-3.6625634 29.05763949 -3.85964252 24.07326746 -5 18 C-6.20398438 18.02320313 -7.40796875 18.04640625 -8.6484375 18.0703125 C-10.22395215 18.08906863 -11.79947348 18.10726899 -13.375 18.125 C-14.1690625 18.14175781 -14.963125 18.15851563 -15.78125 18.17578125 C-17.85492015 18.19335473 -19.92883241 18.10335168 -22 18 C-24 16 -24 16 -24.375 13.0625 C-24 10 -24 10 -22.27734375 8.30859375 C-19.59264445 6.76592777 -18.24144275 6.76915078 -15.1875 7 C-10.22661079 7.14633891 -7.31588806 6.46622175 -3 4 C-1.07663031 1.97053147 -1.07663031 1.97053147 0 0 Z " fill="#5A06CC" transform="translate(318,110)"/>
<path d="M0 0 C0.66 0 1.32 0 2 0 C2 0.66 2 1.32 2 2 C2.969375 2.12375 3.93875 2.2475 4.9375 2.375 C6.4534375 2.684375 6.4534375 2.684375 8 3 C8.33 3.66 8.66 4.32 9 5 C8.67 5.66 8.34 6.32 8 7 C8.9590625 7.2165625 8.9590625 7.2165625 9.9375 7.4375 C12 8 12 8 13 9 C13.09975844 10.77118286 13.1308067 12.54632365 13.1328125 14.3203125 C13.13474609 15.96 13.13474609 15.96 13.13671875 17.6328125 C13.13285156 18.78523438 13.12898437 19.93765625 13.125 21.125 C13.12886719 22.25421875 13.13273438 23.3834375 13.13671875 24.546875 C13.13017501 30.13522816 13.00474348 35.49783335 12 41 C9.03 41.66 6.06 42.32 3 43 C3 42.34 3 41.68 3 41 C1.54166642 39.37485532 1.54166642 39.37485532 0 38 C0.81726563 37.57976562 1.63453125 37.15953125 2.4765625 36.7265625 C6.4477122 32.43575369 5.57432757 27.99741227 5.375 22.375 C5.36082031 21.3128125 5.34664062 20.250625 5.33203125 19.15625 C5.4374776 13.90967761 5.4374776 13.90967761 4 9 C1.97536745 8.34786708 1.97536745 8.34786708 0 8 C0 5.36 0 2.72 0 0 Z " fill="#6B02F7" transform="translate(228,78)"/>
<path d="M0 0 C1.9375 0.75 1.9375 0.75 4 2 C4.75 4.125 4.75 4.125 5 6 C6.093125 6.2475 7.18625 6.495 8.3125 6.75 C12 8 12 8 14 9.875 C15 12 15 12 14.8125 14.1875 C14 16 14 16 12 17 C9.6599583 16.71758117 7.32495277 16.38749213 5 16 C5 17.65 5 19.3 5 21 C4.34 21 3.68 21 3 21 C3 23.31 3 25.62 3 28 C2.34 28 1.68 28 1 28 C1 28.99 1 29.98 1 31 C-0.65 31 -2.3 31 -4 31 C-4 30.34 -4 29.68 -4 29 C-4.66 28.67 -5.32 28.34 -6 28 C-5.505 26.515 -5.505 26.515 -5 25 C-4.34 25 -3.68 25 -3 25 C-3.01571045 24.42032471 -3.0314209 23.84064941 -3.04760742 23.2434082 C-3.11022791 20.59987261 -3.14907518 17.95649345 -3.1875 15.3125 C-3.21263672 14.40048828 -3.23777344 13.48847656 -3.26367188 12.54882812 C-3.31848438 7.52434845 -3.28571911 4.09636897 0 0 Z " fill="#6C02F8" transform="translate(288,37)"/>
<path d="M0 0 C6.93 0 13.86 0 21 0 C21 1.98 21 3.96 21 6 C18.69 6 16.38 6 14 6 C14 12.6 14 19.2 14 26 C11.69 26 9.38 26 7 26 C7 19.4 7 12.8 7 6 C4.69 6 2.38 6 0 6 C0 4.02 0 2.04 0 0 Z " fill="#CAC9CA" transform="translate(186,199)"/>
<path d="M0 0 C6.93 0 13.86 0 21 0 C21 1.98 21 3.96 21 6 C18.69 6 16.38 6 14 6 C14 12.6 14 19.2 14 26 C11.69 26 9.38 26 7 26 C7 19.4 7 12.8 7 6 C4.69 6 2.38 6 0 6 C0 4.02 0 2.04 0 0 Z " fill="#CACACB" transform="translate(164,199)"/>
<path d="M0 0 C0.99 0 1.98 0 3 0 C4.75053086 3.02533176 5.23422237 5.14353785 5.16015625 8.625 C5.14919922 9.49640625 5.13824219 10.3678125 5.12695312 11.265625 C5.10568359 12.16796875 5.08441406 13.0703125 5.0625 14 C5.02794803 15.79158379 4.99783603 17.58325998 4.97265625 19.375 C4.95468994 20.16648437 4.93672363 20.95796875 4.91821289 21.7734375 C5.0389258 25.0597114 5.34656682 27.26815484 7.5625 29.75 C8.036875 30.1625 8.51125 30.575 9 31 C8.01 31 7.02 31 6 31 C5.505 33.475 5.505 33.475 5 36 C4.01 35.67 3.02 35.34 2 35 C2 34.34 2 33.68 2 33 C1.34 33 0.68 33 0 33 C-0.33 31.35 -0.66 29.7 -1 28 C-1.99 27.67 -2.98 27.34 -4 27 C-7.0102183 19.13118373 -4.93358759 10.60972343 -1.97265625 3.1171875 C-1 1 -1 1 0 0 Z " fill="#6903F5" transform="translate(166,85)"/>
<path d="M0 0 C2 2 2 2 2.0625 5.375 C1 9 1 9 -2 11.3125 C-6.13310685 13.31460789 -10.49667173 14.22391622 -15 15 C-14.938125 15.78375 -14.87625 16.5675 -14.8125 17.375 C-14.874375 18.24125 -14.93625 19.1075 -15 20 C-15.99 20.66 -16.98 21.32 -18 22 C-18.99 21.34 -19.98 20.68 -21 20 C-20.67 15.38 -20.34 10.76 -20 6 C-16.64713542 5.25130208 -13.29427083 4.50260417 -9.94140625 3.75390625 C-7.1295314 3.29933252 -7.1295314 3.29933252 -6 2 C-4.00041636 1.95919217 -1.99954746 1.95745644 0 2 C0 1.34 0 0.68 0 0 Z " fill="#6604EA" transform="translate(312,150)"/>
<path d="M0 0 C1.98806038 1.19212873 3.70152275 2.28239812 5.3203125 3.94140625 C5.3203125 4.60140625 5.3203125 5.26140625 5.3203125 5.94140625 C4.0003125 5.94140625 2.6803125 5.94140625 1.3203125 5.94140625 C1.3203125 5.28140625 1.3203125 4.62140625 1.3203125 3.94140625 C0.6603125 3.94140625 0.0003125 3.94140625 -0.6796875 3.94140625 C-0.6796875 3.28140625 -0.6796875 2.62140625 -0.6796875 1.94140625 C-6.2896875 1.61140625 -11.8996875 1.28140625 -17.6796875 0.94140625 C-17.6796875 2.59140625 -17.6796875 4.24140625 -17.6796875 5.94140625 C-14.14557429 8.06187417 -10.73574915 8.47339914 -6.6796875 8.94140625 C-6.6796875 9.27140625 -6.6796875 9.60140625 -6.6796875 9.94140625 C-7.65808594 10.08835937 -7.65808594 10.08835937 -8.65625 10.23828125 C-14.15034837 11.17827448 -18.42473349 12.10156971 -22.6796875 15.94140625 C-24.50231081 19.33303331 -24.50231081 19.33303331 -25.6796875 22.94140625 C-26.0715625 23.91078125 -26.4634375 24.88015625 -26.8671875 25.87890625 C-27.269375 26.89984375 -27.269375 26.89984375 -27.6796875 27.94140625 C-29.6596875 27.94140625 -31.6396875 27.94140625 -33.6796875 27.94140625 C-33.6796875 27.61140625 -33.6796875 27.28140625 -33.6796875 26.94140625 C-32.0296875 26.94140625 -30.3796875 26.94140625 -28.6796875 26.94140625 C-27.52812485 21.67711987 -26.6796875 16.33767188 -26.6796875 10.94140625 C-25.40214196 8.90531805 -24.07268932 6.90031506 -22.6796875 4.94140625 C-23.3396875 4.28140625 -23.9996875 3.62140625 -24.6796875 2.94140625 C-17.26603892 -1.80332884 -8.40568834 -3.32061449 0 0 Z " fill="#6B02F8" transform="translate(233.6796875,24.05859375)"/>
<path d="M0 0 C1.98 0 3.96 0 6 0 C6 8.58 6 17.16 6 26 C4.02 26 2.04 26 0 26 C0 17.42 0 8.84 0 0 Z " fill="#EBEAEB" transform="translate(319,199)"/>
<path d="M0 0 C0.33 1.32 0.66 2.64 1 4 C0.01 4.33 -0.98 4.66 -2 5 C-2 5.99 -2 6.98 -2 8 C-3.32 8 -4.64 8 -6 8 C-6 8.66 -6 9.32 -6 10 C-10.95 10 -15.9 10 -21 10 C-21 11.98 -21 13.96 -21 16 C-19.79601562 15.97679688 -18.59203125 15.95359375 -17.3515625 15.9296875 C-15.77604785 15.91093137 -14.20052652 15.89273101 -12.625 15.875 C-11.8309375 15.85824219 -11.036875 15.84148437 -10.21875 15.82421875 C-8.14507985 15.80664527 -6.07116759 15.89664832 -4 16 C-2 18 -2 18 -1.76953125 20.64453125 C-1.79080078 22.21267578 -1.79080078 22.21267578 -1.8125 23.8125 C-1.81894531 24.85019531 -1.82539063 25.88789063 -1.83203125 26.95703125 C-2.1304816 32.36384103 -2.1304816 32.36384103 -3 35 C-5.0625 36.3125 -5.0625 36.3125 -7 37 C-6.77183594 36.46632812 -6.54367187 35.93265625 -6.30859375 35.3828125 C-3.93591257 29.23299311 -3.88095657 24.45809401 -5 18 C-6.20398438 18.02320313 -7.40796875 18.04640625 -8.6484375 18.0703125 C-10.22395215 18.08906863 -11.79947348 18.10726899 -13.375 18.125 C-14.1690625 18.14175781 -14.963125 18.15851563 -15.78125 18.17578125 C-17.85492015 18.19335473 -19.92883241 18.10335168 -22 18 C-24 16 -24 16 -24.375 13.0625 C-24 10 -24 10 -22.27734375 8.30859375 C-19.59264445 6.76592777 -18.24144275 6.76915078 -15.1875 7 C-10.22661079 7.14633891 -7.31588806 6.46622175 -3 4 C-1.07663031 1.97053147 -1.07663031 1.97053147 0 0 Z " fill="#4D0BAC" transform="translate(318,110)"/>
<path d="M0 0 C0.66 0 1.32 0 2 0 C2 20.13 2 40.26 2 61 C4.29308963 62.14654482 5.79909656 62.19729117 8.3515625 62.31640625 C9.62773437 62.37924805 9.62773437 62.37924805 10.9296875 62.44335938 C11.81914062 62.48267578 12.70859375 62.52199219 13.625 62.5625 C14.97078125 62.62727539 14.97078125 62.62727539 16.34375 62.69335938 C18.56234283 62.79956861 20.7810488 62.90161194 23 63 C23 63.33 23 63.66 23 64 C19.75007554 64.05819424 16.50028565 64.09366116 13.25 64.125 C12.32960938 64.14175781 11.40921875 64.15851563 10.4609375 64.17578125 C9.57148438 64.18222656 8.68203125 64.18867187 7.765625 64.1953125 C6.94868164 64.20578613 6.13173828 64.21625977 5.29003906 64.22705078 C2.76918035 63.9771149 1.21722755 63.17712095 -1 62 C-1.02312764 54.06386213 -1.04091723 46.12773824 -1.05181217 38.19157505 C-1.05704008 34.50685502 -1.06413605 30.82215797 -1.07543945 27.13745117 C-1.08627162 23.58429169 -1.09227753 20.03115437 -1.09487724 16.47797966 C-1.0967309 15.11954334 -1.10035038 13.76110829 -1.10573006 12.40268135 C-1.11294475 10.50617777 -1.11340809 8.60965207 -1.11352539 6.71313477 C-1.115746 5.63169693 -1.11796661 4.55025909 -1.12025452 3.43605042 C-1 1 -1 1 0 0 Z " fill="#450B90" transform="translate(259,35)"/>
<path d="M0 0 C0.99 0.33 1.98 0.66 3 1 C1.35 3.31 -0.3 5.62 -2 8 C-1.67 8.66 -1.34 9.32 -1 10 C-1.76303318 19.30900474 -1.76303318 19.30900474 -4 23 C-8.0683654 24.55555148 -12.69503828 24.07296545 -17 24 C-16.01 22.02 -15.02 20.04 -14 18 C-12.68 18 -11.36 18 -10 18 C-8.57500668 14.61968064 -8.57500668 14.61968064 -7.62109375 11.08984375 C-6.85979145 8.5282291 -5.640044 6.91380637 -4 4.8125 C-3.46375 4.11769531 -2.9275 3.42289063 -2.375 2.70703125 C-1 1 -1 1 0 0 Z " fill="#6C02F6" transform="translate(209,28)"/>
<path d="M0 0 C1.32 0.33 2.64 0.66 4 1 C3.34 1.61875 2.68 2.2375 2 2.875 C-0.50648246 6.79137885 -0.14110609 9.11345393 0.046875 13.625 C-0.01617583 16.81957559 -0.95703333 18.57870617 -3 21 C-6.69720147 23.46480098 -9.71155966 23.7842673 -14 23 C-17 21.0625 -17 21.0625 -19 18 C-19.62914747 14.87096569 -19.63274959 12.12859519 -19 9 C-16.61096711 5.54917471 -13.93049612 4.31016537 -10 3 C-10.33 3.99 -10.66 4.98 -11 6 C-13.0625 6.6875 -13.0625 6.6875 -15 7 C-15.16682272 11.92127034 -15.24828052 15.50343896 -13 20 C-10.03 20 -7.06 20 -4 20 C-3.67 14.39 -3.34 8.78 -3 3 C-2.01 3 -1.02 3 0 3 C0 2.01 0 1.02 0 0 Z " fill="#4B09A8" transform="translate(214,126)"/>
<path d="M0 0 C1 3 1 3 -0.3125 5.6875 C-0.869375 6.450625 -1.42625 7.21375 -2 8 C-2.66 8 -3.32 8 -4 8 C-3.67 16.58 -3.34 25.16 -3 34 C-6.16098841 35.0536628 -7.00887259 35.21514551 -10 34 C-12.76735566 31.00430911 -13.3668862 29.05644571 -13.29296875 25.015625 C-13.28330078 24.08105469 -13.27363281 23.14648438 -13.26367188 22.18359375 C-13.23853516 21.21550781 -13.21339844 20.24742188 -13.1875 19.25 C-13.17396484 18.26644531 -13.16042969 17.28289063 -13.14648438 16.26953125 C-13.11118726 13.84579585 -13.06188054 11.42317855 -13 9 C-12.67 9 -12.34 9 -12 9 C-11.9906543 9.59014893 -11.98130859 10.18029785 -11.97167969 10.78833008 C-11.91797343 13.46390205 -11.83433148 16.13772553 -11.75 18.8125 C-11.73582031 19.74126953 -11.72164062 20.67003906 -11.70703125 21.62695312 C-11.67480469 22.51962891 -11.64257812 23.41230469 -11.609375 24.33203125 C-11.58842773 25.15421143 -11.56748047 25.9763916 -11.54589844 26.82348633 C-10.82117061 29.71299821 -9.47824829 30.47376173 -7 32 C-7.02618408 31.41621582 -7.05236816 30.83243164 -7.0793457 30.23095703 C-7.94115428 8.12938514 -7.94115428 8.12938514 -2 1 C-1.34 0.67 -0.68 0.34 0 0 Z " fill="#4807A3" transform="translate(255,26)"/>
<path d="M0 0 C2.9375 1.5 2.9375 1.5 5 3 C4.67 3.66 4.34 4.32 4 5 C3.01 4.34 2.02 3.68 1 3 C-0.9504073 2.64834183 -0.9504073 2.64834183 -3 2.6875 C-4.0209375 2.66236328 -4.0209375 2.66236328 -5.0625 2.63671875 C-7.63183203 3.11846851 -8.50818228 3.86613414 -10 6 C-10.18409918 8.2290452 -10.18409918 8.2290452 -9.75 10.5625 C-9.64171875 11.34753906 -9.5334375 12.13257813 -9.421875 12.94140625 C-9.08180814 15.05183551 -9.08180814 15.05183551 -8 17 C-6.35636866 17.72159424 -4.68949614 18.39351421 -3 19 C-3.33 22.3 -3.66 25.6 -4 29 C-4.99 29.33 -5.98 29.66 -7 30 C-7 30.66 -7 31.32 -7 32 C-9.55919182 33.27959591 -11.45484028 33.16816536 -14.3125 33.1875 C-15.72982422 33.20876953 -15.72982422 33.20876953 -17.17578125 33.23046875 C-20.14406882 32.98824335 -22.30867165 32.24026607 -25 31 C-25 30.34 -25 29.68 -25 29 C-25.66 29 -26.32 29 -27 29 C-26.67 28.34 -26.34 27.68 -26 27 C-25.34 27.33 -24.68 27.66 -24 28 C-24 28.66 -24 29.32 -24 30 C-15.52521217 31.54785849 -15.52521217 31.54785849 -7.75 28.9375 C-5.90379133 25.83850688 -5.24979787 23.5804362 -5 20 C-5.5775 19.9175 -6.155 19.835 -6.75 19.75 C-9.8864184 18.7045272 -11.08956046 17.72919934 -13 15 C-13.72146304 10.21370865 -13.52869263 6.19927295 -11 2 C-7.56297069 -0.54594764 -4.14953888 -0.36399464 0 0 Z " fill="#48099E" transform="translate(235,146)"/>
<path d="M0 0 C0 0.66 0 1.32 0 2 C-1.98 2.66 -3.96 3.32 -6 4 C-6 4.99 -6 5.98 -6 7 C-7.32 6.67 -8.64 6.34 -10 6 C-10.2475 6.639375 -10.495 7.27875 -10.75 7.9375 C-12 10 -12 10 -14.125 10.75 C-15.053125 10.87375 -15.053125 10.87375 -16 11 C-16.12375 12.093125 -16.2475 13.18625 -16.375 14.3125 C-17 18 -17 18 -19 21 C-19.66 21 -20.32 21 -21 21 C-20.98839844 21.75925781 -20.97679687 22.51851562 -20.96484375 23.30078125 C-20.95582031 24.29464844 -20.94679687 25.28851563 -20.9375 26.3125 C-20.92589844 27.29863281 -20.91429687 28.28476563 -20.90234375 29.30078125 C-21 32 -21 32 -22 35 C-22.66 35 -23.32 35 -24 35 C-24 35.66 -24 36.32 -24 37 C-24.99 37 -25.98 37 -27 37 C-25.125 33.125 -25.125 33.125 -24 32 C-23.72581878 30.19100002 -23.48120926 28.37749271 -23.25 26.5625 C-21.87918434 18.03298036 -18.83407172 10.56261651 -12 5 C-5.05555556 0 -5.05555556 0 0 0 Z " fill="#4F09AC" transform="translate(194,44)"/>
<path d="M0 0 C0.33730842 1.43657245 0.66969591 2.87430093 1 4.3125 C1.185625 5.11300781 1.37125 5.91351563 1.5625 6.73828125 C2 9 2 9 2 12 C1.34 11.67 0.68 11.34 0 11 C-0.33 11.99 -0.66 12.98 -1 14 C-1.66 14 -2.32 14 -3 14 C-5 11 -5 11 -5 8 C-5.804375 7.731875 -6.60875 7.46375 -7.4375 7.1875 C-8.283125 6.795625 -9.12875 6.40375 -10 6 C-10.33 5.01 -10.66 4.02 -11 3 C-4.5 0 -4.5 0 0 0 Z " fill="#6C02FA" transform="translate(198,156)"/>
<path d="M0 0 C1.8125 0.1875 1.8125 0.1875 4 1 C5.75 3.5625 5.75 3.5625 7 6 C3.25 9 3.25 9 1 9 C1.0928125 10.175625 1.0928125 10.175625 1.1875 11.375 C1.125625 12.24125 1.06375 13.1075 1 14 C0.01 14.66 -0.98 15.32 -2 16 C-2.99 15.34 -3.98 14.68 -5 14 C-4.85904936 12.3745692 -4.71207913 10.74965949 -4.5625 9.125 C-4.48128906 8.22007812 -4.40007812 7.31515625 -4.31640625 6.3828125 C-4 4 -4 4 -3 2 C-0.4375 1.375 -0.4375 1.375 2 1 C1.34 0.67 0.68 0.34 0 0 Z " fill="#6C01FB" transform="translate(296,156)"/>
<path d="M0 0 C0.33 0.66 0.66 1.32 1 2 C1.66 2 2.32 2 3 2 C3.82113177 3.39077301 4.63152495 4.78788893 5.4375 6.1875 C6.11619141 7.35345703 6.11619141 7.35345703 6.80859375 8.54296875 C10.09246585 15.31528204 10.06956034 23.94986394 8.17578125 31.12109375 C6.76080318 35.08198032 5.33879345 38.49180983 3 42 C2.34 41.67 1.68 41.34 1 41 C2.04226506 37.12872977 3.04824595 33.5131573 5 30 C7.88535298 24.22929404 6.13094556 15.22020059 5 9 C4.01 9 3.02 9 2 9 C0.50178941 5.62902617 0 3.79557881 0 0 Z " fill="#430799" transform="translate(322,79)"/>
<path d="M0 0 C1.515625 1.87109375 1.515625 1.87109375 3 4 C2.75 6.0625 2.75 6.0625 2 8 C1.02689602 10.91931194 0.78738031 13.4995189 0.55712891 16.54833984 C-0.04636005 23.63650375 -0.87539386 28.43706093 -6.1484375 33.6171875 C-10.43697665 36.82002054 -13.35801333 37.23283973 -18.75 37.125 C-19.92046875 37.10695312 -21.0909375 37.08890625 -22.296875 37.0703125 C-23.18890625 37.04710937 -24.0809375 37.02390625 -25 37 C-25 36.67 -25 36.34 -25 36 C-24.16855469 35.93941406 -23.33710938 35.87882812 -22.48046875 35.81640625 C-21.39378906 35.73261719 -20.30710938 35.64882812 -19.1875 35.5625 C-18.10855469 35.48128906 -17.02960938 35.40007812 -15.91796875 35.31640625 C-12.94010095 35.09787539 -12.94010095 35.09787539 -10 34 C-10 33.01 -10 32.02 -10 31 C-8.68 30.67 -7.36 30.34 -6 30 C-5.87625 29.195625 -5.7525 28.39125 -5.625 27.5625 C-5.41875 26.716875 -5.2125 25.87125 -5 25 C-4.34 24.67 -3.68 24.34 -3 24 C-2.6029918 21.0616675 -2.6029918 21.0616675 -2.5 17.5625 C-2.16110138 11.54242823 -1.39102291 5.86120331 0 0 Z " fill="#500BAB" transform="translate(240,151)"/>
<path d="M0 0 C2.1875 1.3125 2.1875 1.3125 4 3 C4 3.66 4 4.32 4 5 C4.99 5 5.98 5 7 5 C7.33 6.32 7.66 7.64 8 9 C9.32 8.34 10.64 7.68 12 7 C12 9.31 12 11.62 12 14 C12.95712891 14.29003906 12.95712891 14.29003906 13.93359375 14.5859375 C14.75988281 14.84632812 15.58617187 15.10671875 16.4375 15.375 C17.26121094 15.63023438 18.08492187 15.88546875 18.93359375 16.1484375 C21 17 21 17 22 19 C22.26738912 22.8277157 22.23153544 26.66398854 22.25 30.5 C22.270625 31.57121094 22.29125 32.64242187 22.3125 33.74609375 C22.31765625 34.76832031 22.3228125 35.79054687 22.328125 36.84375 C22.34214355 38.25430664 22.34214355 38.25430664 22.35644531 39.69335938 C22.18000488 40.83514648 22.18000488 40.83514648 22 42 C21.01 42.66 20.02 43.32 19 44 C19.33 43.01 19.66 42.02 20 41 C20.2519693 37.67095111 20.2311966 34.33760403 20.25 31 C20.270625 30.08476563 20.29125 29.16953125 20.3125 28.2265625 C20.31765625 27.34742187 20.3228125 26.46828125 20.328125 25.5625 C20.3374707 24.75941406 20.34681641 23.95632812 20.35644531 23.12890625 C19.90831317 20.452391 19.11173427 19.65703119 17 18 C15.9275 17.443125 14.855 16.88625 13.75 16.3125 C9.24225193 13.84236939 5.96362939 10.16169234 3 6 C3 5.34 3 4.68 3 4 C2.195625 3.87625 1.39125 3.7525 0.5625 3.625 C-0.283125 3.41875 -1.12875 3.2125 -2 3 C-2.33 2.34 -2.66 1.68 -3 1 C-2.01 0.67 -1.02 0.34 0 0 Z " fill="#5013A8" transform="translate(212,70)"/>
<path d="M0 0 C0.99 0 1.98 0 3 0 C3 0.99 3 1.98 3 3 C4.32 3.66 5.64 4.32 7 5 C7 5.66 7 6.32 7 7 C17.23 7.33 27.46 7.66 38 8 C37.505 6.515 37.505 6.515 37 5 C38.65 5 40.3 5 42 5 C40.43892607 7.54701536 39.65019333 8.82481228 36.70483398 9.6184082 C32.16219129 10.25927385 27.64295087 10.18448853 23.0625 10.1875 C22.08603516 10.19974609 21.10957031 10.21199219 20.10351562 10.22460938 C12.4752382 10.24012452 6.69819181 9.53538633 1 4 C0.1875 1.75 0.1875 1.75 0 0 Z " fill="#4C08A8" transform="translate(250,99)"/>
<path d="M0 0 C6.49721116 2.68850117 10.82483411 5.51084228 14 12 C14.74634148 16.26164556 14.66132025 20.37470387 14.5 24.6875 C14.4896875 25.80189453 14.479375 26.91628906 14.46875 28.06445312 C14.36988253 33.22100974 14.15643361 37.2533612 12 42 C11.67 42 11.34 42 11 42 C11 31.77 11 21.54 11 11 C9.68 10.34 8.36 9.68 7 9 C7 8.01 7 7.02 7 6 C6.030625 5.7525 5.06125 5.505 4.0625 5.25 C3.051875 4.8375 2.04125 4.425 1 4 C0.30859375 1.921875 0.30859375 1.921875 0 0 Z " fill="#3F068D" transform="translate(229,76)"/>
<path d="M0 0 C5.875 0.875 5.875 0.875 7 2 C7.08713831 3.70772358 7.10700007 5.41898649 7.09765625 7.12890625 C7.09282227 8.68061523 7.09282227 8.68061523 7.08789062 10.26367188 C7.07951172 11.35228516 7.07113281 12.44089844 7.0625 13.5625 C7.05798828 14.65498047 7.05347656 15.74746094 7.04882812 16.87304688 C7.03699826 19.58208495 7.02051543 22.29101599 7 25 C7.99 25 8.98 25 10 25 C10 25.99 10 26.98 10 28 C10.99 28.33 11.98 28.66 13 29 C13 29.99 13 30.98 13 32 C13.66 32 14.32 32 15 32 C15 32.66 15 33.32 15 34 C12.57064587 33.61151053 11.2913441 33.29919704 9.55078125 31.51171875 C9.14214844 30.90972656 8.73351562 30.30773437 8.3125 29.6875 C7.89613281 29.09324219 7.47976562 28.49898437 7.05078125 27.88671875 C4.30894177 22.96363893 4.68655852 17.34050246 4.48242188 11.84375 C4.22664431 6.67028683 3.66372898 3.66372898 0 0 Z " fill="#440590" transform="translate(227,34)"/>
<path d="M0 0 C0.66 0.33 1.32 0.66 2 1 C1.67 1.66 1.34 2.32 1 3 C0.90465746 4.6853196 0.87014242 6.37449266 0.875 8.0625 C0.87242187 8.96097656 0.86984375 9.85945313 0.8671875 10.78515625 C0.75261777 12.97378893 0.75261777 12.97378893 2 14 C2.07313567 16.53049402 2.09247527 19.03304837 2.0625 21.5625 C2.05798828 22.27341797 2.05347656 22.98433594 2.04882812 23.71679688 C2.03700864 25.47790013 2.01907263 27.23896036 2 29 C1.01 29.33 0.02 29.66 -1 30 C-1.33 30.66 -1.66 31.32 -2 32 C-3.62490954 32.02698189 -5.24994633 32.04638757 -6.875 32.0625 C-8.23238281 32.07990234 -8.23238281 32.07990234 -9.6171875 32.09765625 C-12 32 -12 32 -14 31 C-14 30.34 -14 29.68 -14 29 C-12.86111328 29.01740234 -12.86111328 29.01740234 -11.69921875 29.03515625 C-10.70535156 29.04417969 -9.71148437 29.05320312 -8.6875 29.0625 C-7.70136719 29.07410156 -6.71523437 29.08570312 -5.69921875 29.09765625 C-2.90036151 29.12329862 -2.90036151 29.12329862 0 28 C0.08160748 26.10489301 0.13946459 24.20875496 0.1875 22.3125 C0.22230469 21.25675781 0.25710937 20.20101562 0.29296875 19.11328125 C-0.03621668 15.61513741 -1.09072083 13.89598675 -3 11 C-3.58393336 6.32853309 -2.69516915 3.81815629 0 0 Z " fill="#410691" transform="translate(191,86)"/>
<path d="M0 0 C1.125 3.75 1.125 3.75 0 6 C-0.20034863 10.12130223 -0.20034863 10.12130223 0.8125 14.0625 C0.874375 14.701875 0.93625 15.34125 1 16 C-1.3125 18.75 -1.3125 18.75 -4 21 C-4.66 21 -5.32 21 -6 21 C-7.86551426 24.58752742 -9.42535928 28.27812193 -11 32 C-11.33 32 -11.66 32 -12 32 C-12 29.03 -12 26.06 -12 23 C-10.68 23 -9.36 23 -8 23 C-7.9175 22.38125 -7.835 21.7625 -7.75 21.125 C-7.5025 20.42375 -7.255 19.7225 -7 19 C-6.33742187 18.75765625 -5.67484375 18.5153125 -4.9921875 18.265625 C-4.33476562 17.84796875 -3.67734375 17.4303125 -3 17 C-2.36710004 14.02293647 -2.36710004 14.02293647 -2.375 10.625 C-2.16645176 3.51831766 -2.16645176 3.51831766 0 0 Z " fill="#3D0985" transform="translate(182,64)"/>
<path d="M0 0 C4.91692765 1.93165015 7.13206981 5.43104927 9.625 9.9375 C11.58119202 14.72166527 11.95336599 19.89576666 12.5703125 24.98828125 C12.8258842 27.9154351 12.8258842 27.9154351 14 30 C12.0390625 29.41015625 12.0390625 29.41015625 10 28 C9.4609375 24.99609375 9.4609375 24.99609375 9.375 21.4375 C9.31381314 19.28890002 9.2037894 17.13978868 9 15 C8.34 14.67 7.68 14.34 7 14 C6.33333333 12 5.66666667 10 5 8 C4.34 7.67 3.68 7.34 3 7 C3 6.01 3 5.02 3 4 C1.68 4 0.36 4 -1 4 C-0.67 2.68 -0.34 1.36 0 0 Z " fill="#43099A" transform="translate(308,49)"/>
<path d="M0 0 C1.98806038 1.19212873 3.70152275 2.28239812 5.3203125 3.94140625 C5.3203125 4.60140625 5.3203125 5.26140625 5.3203125 5.94140625 C4.0003125 5.94140625 2.6803125 5.94140625 1.3203125 5.94140625 C1.3203125 5.28140625 1.3203125 4.62140625 1.3203125 3.94140625 C0.6603125 3.94140625 0.0003125 3.94140625 -0.6796875 3.94140625 C-0.6796875 3.28140625 -0.6796875 2.62140625 -0.6796875 1.94140625 C-3.45078057 1.88748228 -6.22082568 1.8477717 -8.9921875 1.81640625 C-9.77787109 1.79964844 -10.56355469 1.78289063 -11.37304688 1.765625 C-12.13037109 1.75917969 -12.88769531 1.75273437 -13.66796875 1.74609375 C-14.36446533 1.73562012 -15.06096191 1.72514648 -15.77856445 1.71435547 C-18.0108605 1.8356603 -18.0108605 1.8356603 -20.6796875 3.94140625 C-22.8671875 3.56640625 -22.8671875 3.56640625 -24.6796875 2.94140625 C-17.26603892 -1.80332884 -8.40568834 -3.32061449 0 0 Z " fill="#4D07AF" transform="translate(233.6796875,24.05859375)"/>
<path d="M0 0 C2.38526264 0.37081814 3.65724317 0.60434859 5.265625 2.4609375 C8.22423321 8.21378679 8.85727863 13.58037864 8 20 C6.9765625 22.328125 6.9765625 22.328125 6 24 C5.34 24 4.68 24 4 24 C4 17.73 4 11.46 4 5 C3.34 5 2.68 5 2 5 C1.34 3.35 0.68 1.7 0 0 Z " fill="#4808A9" transform="translate(315,86)"/>
<path d="M0 0 C2.75903196 2.24171347 3.90469787 3.36011426 4.4375 6.9375 C3.95148866 10.33957935 3.03897287 12.25522883 1 15 C0.01 15.495 0.01 15.495 -1 16 C-1.46898963 18.8159849 -1.46898963 18.8159849 -1.625 22.0625 C-1.69976562 23.16722656 -1.77453125 24.27195312 -1.8515625 25.41015625 C-1.90054688 26.26480469 -1.94953125 27.11945313 -2 28 C-2.33 28 -2.66 28 -3 28 C-3 22.72 -3 17.44 -3 12 C-1.68 11.34 -0.36 10.68 1 10 C0.67 6.7 0.34 3.4 0 0 Z " fill="#4608A3" transform="translate(204,87)"/>
<path d="M0 0 C7.12824612 -0.53461846 12.45890833 -0.59770823 18.4765625 3.515625 C20.79884807 5.77836478 21.89262723 7.96044688 22.22705078 11.19824219 C22.21657715 11.97329102 22.20610352 12.74833984 22.1953125 13.546875 C22.18886719 14.39121094 22.18242187 15.23554687 22.17578125 16.10546875 C22.15902344 16.97816406 22.14226562 17.85085937 22.125 18.75 C22.11597656 19.63816406 22.10695313 20.52632812 22.09765625 21.44140625 C22.07414577 23.62788058 22.04128499 25.81380094 22 28 C21.67 28 21.34 28 21 28 C20.95101563 26.74703125 20.90203125 25.4940625 20.8515625 24.203125 C20.77651417 22.55206179 20.70096723 20.90102119 20.625 19.25 C20.5940625 18.425 20.563125 17.6 20.53125 16.75 C20.49257813 15.95078125 20.45390625 15.1515625 20.4140625 14.328125 C20.36693115 13.22839355 20.36693115 13.22839355 20.31884766 12.10644531 C19.96227477 9.75077082 19.16337117 8.06549409 18 6 C17.34 6 16.68 6 16 6 C16 5.34 16 4.68 16 4 C10.16200408 2.30167391 5.06892629 1.74712807 -1 2 C-0.67 1.34 -0.34 0.68 0 0 Z " fill="#320589" transform="translate(262,33)"/>
<path d="M0 0 C0.99 0.33 1.98 0.66 3 1 C3.33 2.65 3.66 4.3 4 6 C4.66 6 5.32 6 6 6 C7.78683599 9.03282891 8.19949967 10.83953841 7.6875 14.3125 C7.57921875 15.10011719 7.4709375 15.88773438 7.359375 16.69921875 C7.24078125 17.45847656 7.1221875 18.21773437 7 19 C6.26474641 23.73830093 5.90205885 28.20088378 6 33 C3.17913226 28.22019633 3.57099238 23.40089955 4 18 C4.59375 15.90234375 4.59375 15.90234375 5.25 14.125 C5.4975 13.09375 5.745 12.0625 6 11 C4.21531661 8.22712063 4.21531661 8.22712063 2 6 C2 5.01 2 4.02 2 3 C1.34 3 0.68 3 0 3 C0 2.01 0 1.02 0 0 Z " fill="#43089E" transform="translate(162,112)"/>
<path d="M0 0 C0.33 0.66 0.66 1.32 1 2 C8.50804623 3.81228702 14.9034947 2.72468859 22 0 C20.63016497 3.16115776 20.0109362 3.9927092 17 6 C14.00390625 6.265625 14.00390625 6.265625 10.5625 6.25 C9.42941406 6.25515625 8.29632813 6.2603125 7.12890625 6.265625 C4.16474309 6.01398568 2.49686329 5.54596941 0 4 C0 2.68 0 1.36 0 0 Z " fill="#5009B4" transform="translate(260,174)"/>
<path d="M0 0 C1 1 1 1 1.375 3.8125 C1 7 1 7 -1.5 9.375 C-2.325 9.91125 -3.15 10.4475 -4 11 C-4.33 9.68 -4.66 8.36 -5 7 C-3.68 7 -2.36 7 -1 7 C-1.33 5.35 -1.66 3.7 -2 2 C-5.5219721 1.91995518 -8.61981469 1.95994298 -12 3 C-12 3.66 -12 4.32 -12 5 C-12.66 4.67 -13.32 4.34 -14 4 C-9.6779661 -0.68220339 -9.6779661 -0.68220339 -7 -1.9375 C-4.28318636 -2.02240043 -2.42224212 -1.17838806 0 0 Z " fill="#480AA2" transform="translate(296,93)"/>
<path d="M0 0 C1.65 0 3.3 0 5 0 C5.33 0.66 5.66 1.32 6 2 C4.68 1.67 3.36 1.34 2 1 C1.8453125 2.5159375 1.8453125 2.5159375 1.6875 4.0625 C0.60922483 10.23807596 -1.19738345 14.85981332 -6 19 C-6.99 18.67 -7.98 18.34 -9 18 C-8.34 18 -7.68 18 -7 18 C-7 17.34 -7 16.68 -7 16 C-7.66 15.67 -8.32 15.34 -9 15 C-8.34 14.67 -7.68 14.34 -7 14 C-6.01 14.33 -5.02 14.66 -4 15 C-4 14.01 -4 13.02 -4 12 C-3.34 12 -2.68 12 -2 12 C-2 9.69 -2 7.38 -2 5 C-1.34 5 -0.68 5 0 5 C0 3.35 0 1.7 0 0 Z " fill="#4208A0" transform="translate(293,53)"/>
<path d="M0 0 C0.6875 1.6875 0.6875 1.6875 1 4 C0.04060332 5.69036558 -0.96642853 7.35394174 -2 9 C-4.74986849 15.80230626 -4.18076272 22.7594489 -4 30 C-6.46606468 27.53393532 -6.30656115 26.01845429 -6.37939453 22.64111328 C-6.37794434 21.9345459 -6.37649414 21.22797852 -6.375 20.5 C-6.37483887 19.78183105 -6.37467773 19.06366211 -6.37451172 18.32373047 C-6.22976668 11.53594975 -4.95237588 4.95237588 0 0 Z " fill="#4807A1" transform="translate(166,81)"/>
<path d="M0 0 C2.875 -0.125 2.875 -0.125 6 0 C8.31197526 2.31197526 8.60942587 3.69201727 9.4375 6.8125 C10.51430129 10.60877393 11.71482405 13.73546293 14 17 C11.48075592 16.63481546 10.32238586 16.41691257 8.734375 14.36328125 C6.6698976 10.06228667 5.51121911 6.88780895 6 2 C4.02 2 2.04 2 0 2 C0 1.34 0 0.68 0 0 Z " fill="#4809A1" transform="translate(192,154)"/>
<path d="M0 0 C1.65 0 3.3 0 5 0 C5 0.66 5 1.32 5 2 C4.34 2 3.68 2 3 2 C3 2.66 3 3.32 3 4 C-3.52940894 6.95671348 -8.87399867 7.35368021 -16 7 C-16 6.34 -16 5.68 -16 5 C-15.16855469 4.93941406 -14.33710938 4.87882812 -13.48046875 4.81640625 C-12.39378906 4.73261719 -11.30710938 4.64882812 -10.1875 4.5625 C-9.10855469 4.48128906 -8.02960938 4.40007812 -6.91796875 4.31640625 C-3.94010095 4.09787539 -3.94010095 4.09787539 -1 3 C-0.67 2.01 -0.34 1.02 0 0 Z " fill="#42079D" transform="translate(234,119)"/>
<path d="M0 0 C0 0.66 0 1.32 0 2 C-1.98 2.66 -3.96 3.32 -6 4 C-6 4.99 -6 5.98 -6 7 C-7.32 6.67 -8.64 6.34 -10 6 C-10.268125 6.639375 -10.53625 7.27875 -10.8125 7.9375 C-12 10 -12 10 -15 11 C-15 9.68 -15 8.36 -15 7 C-13.1015625 5.33203125 -13.1015625 5.33203125 -10.625 3.8125 C-9.81289062 3.30332031 -9.00078125 2.79414062 -8.1640625 2.26953125 C-4.85109748 0.32600484 -4.08955262 0 0 0 Z " fill="#4E09B0" transform="translate(194,44)"/>
<path d="M0 0 C0.99 0.495 0.99 0.495 2 1 C2 1.66 2 2.32 2 3 C3.32 3.33 4.64 3.66 6 4 C6 4.66 6 5.32 6 6 C7.11375 6.144375 8.2275 6.28875 9.375 6.4375 C13 7 13 7 15 8 C15 9.98 15 11.96 15 14 C14.01 14.495 14.01 14.495 13 15 C13 13.02 13 11.04 13 9 C10.69 9 8.38 9 6 9 C6 8.34 6 7.68 6 7 C5.34 7 4.68 7 4 7 C0 2.52941176 0 2.52941176 0 0 Z " fill="#4A08A2" transform="translate(278,133)"/>
<path d="M0 0 C2.1875 1.3125 2.1875 1.3125 4 3 C4 3.66 4 4.32 4 5 C4.99 5 5.98 5 7 5 C7.33 6.32 7.66 7.64 8 9 C9.32 8.34 10.64 7.68 12 7 C12 8.98 12 10.96 12 13 C9.66471585 12.82701599 8.30822418 12.29774631 6.62109375 10.66796875 C3 6.42788462 3 6.42788462 3 4 C2.195625 3.87625 1.39125 3.7525 0.5625 3.625 C-0.283125 3.41875 -1.12875 3.2125 -2 3 C-2.33 2.34 -2.66 1.68 -3 1 C-2.01 0.67 -1.02 0.34 0 0 Z " fill="#5509C8" transform="translate(212,70)"/>
<path d="M0 0 C0.99 0.33 1.98 0.66 3 1 C3.04898437 2.02480469 3.09796875 3.04960938 3.1484375 4.10546875 C3.22351071 5.4661706 3.29905655 6.82684644 3.375 8.1875 C3.4059375 8.86103516 3.436875 9.53457031 3.46875 10.22851562 C3.70103922 14.19678975 4.28387476 17.40729879 6 21 C3.55078125 20.07421875 3.55078125 20.07421875 1 18 C0.20365619 14.95669186 0.20931051 11.94594373 0.1875 8.8125 C0.16236328 7.96751953 0.13722656 7.12253906 0.11132812 6.25195312 C0.05247266 4.1684695 0.02337005 2.08418373 0 0 Z " fill="#450991" transform="translate(308,64)"/>
<path d="M0 0 C0.33 0 0.66 0 1 0 C1.33 8.91 1.66 17.82 2 27 C2.99 27 3.98 27 5 27 C5.33 28.65 5.66 30.3 6 32 C1.125 28.25 1.125 28.25 0 26 C-0.08510205 24.0406396 -0.10717656 22.07837206 -0.09765625 20.1171875 C-0.09443359 18.95058594 -0.09121094 17.78398437 -0.08789062 16.58203125 C-0.07951172 15.35871094 -0.07113281 14.13539063 -0.0625 12.875 C-0.05798828 11.64394531 -0.05347656 10.41289062 -0.04882812 9.14453125 C-0.0370133 6.09630608 -0.02054028 3.04817686 0 0 Z " fill="#640ADE" transform="translate(250,152)"/>
<path d="M0 0 C0.33 0 0.66 0 1 0 C1.30109336 8.88225399 1.30109336 8.88225399 -1 13 C-1.99 13.66 -2.98 14.32 -4 15 C-4.33 15.99 -4.66 16.98 -5 18 C-6.32 17.67 -7.64 17.34 -9 17 C-8.40251953 16.41605469 -8.40251953 16.41605469 -7.79296875 15.8203125 C-3.23327839 11.00545699 -1.47124404 6.41410777 0 0 Z " fill="#4A09A5" transform="translate(291,156)"/>
<path d="M0 0 C0.99 0.66 1.98 1.32 3 2 C2.67 5.3 2.34 8.6 2 12 C0.68 11.34 -0.64 10.68 -2 10 C-2.75 7.375 -2.75 7.375 -3 5 C-2.34 5 -1.68 5 -1 5 C-0.67 3.35 -0.34 1.7 0 0 Z " fill="#6605EA" transform="translate(226,74)"/>
<path d="M0 0 C1.2065625 0.0309375 1.2065625 0.0309375 2.4375 0.0625 C1.839375 0.866875 1.24125 1.67125 0.625 2.5 C-1.98991231 6.38049265 -3.25472749 10.60418462 -4.5625 15.0625 C-6.5425 15.0625 -8.5225 15.0625 -10.5625 15.0625 C-10.5625 14.7325 -10.5625 14.4025 -10.5625 14.0625 C-8.9125 14.0625 -7.2625 14.0625 -5.5625 14.0625 C-4.88958522 10.98631813 -4.41667615 7.93824503 -4.0625 4.8125 C-3.43199429 0.08370718 -3.43199429 0.08370718 0 0 Z " fill="#4C09AB" transform="translate(210.5625,36.9375)"/>
<path d="M0 0 C0.66 0.33 1.32 0.66 2 1 C1.3503125 1.5878125 1.3503125 1.5878125 0.6875 2.1875 C-1.13858339 4.01043451 -1.13858339 4.01043451 -2.5 6.625 C-4 9 -4 9 -7 10 C-7 10.99 -7 11.98 -7 13 C-7.66 13 -8.32 13 -9 13 C-9 13.99 -9 14.98 -9 16 C-10.32 15.67 -11.64 15.34 -13 15 C-12.01 15 -11.02 15 -10 15 C-9.88269531 14.42378906 -9.76539063 13.84757812 -9.64453125 13.25390625 C-8.13132681 7.96227617 -4.77219186 2.82796555 0 0 Z " fill="#4808A3" transform="translate(207,28)"/>
<path d="M0 0 C3.63 0.33 7.26 0.66 11 1 C11 1.99 11 2.98 11 4 C12.98 4 14.96 4 17 4 C16.67 4.66 16.34 5.32 16 6 C10.19834261 5.02541328 5.16017278 3.98746845 0 1 C0 0.67 0 0.34 0 0 Z " fill="#4C05A7" transform="translate(274,144)"/>
<path d="M0 0 C2.69188994 1.05183107 4.59178473 2.32899348 7 4 C7.99 4.66 8.98 5.32 10 6 C9.67 6.66 9.34 7.32 9 8 C8.52691406 7.65066406 8.05382812 7.30132812 7.56640625 6.94140625 C2.50864711 3.46111585 -1.797865 1.74059511 -8 2 C-10.94661406 2.78863521 -10.94661406 2.78863521 -13 4 C-12.67 3.01 -12.34 2.02 -12 1 C-8.28739929 -0.85630036 -4.05129217 -0.45486065 0 0 Z " fill="#39057A" transform="translate(263,115)"/>
<path d="M0 0 C1.98 0 3.96 0 6 0 C6 1.98 6 3.96 6 6 C4.02 6 2.04 6 0 6 C-1.125 2.25 -1.125 2.25 0 0 Z " fill="#6B03F7" transform="translate(285,142)"/>
<path d="M0 0 C0.66 0.33 1.32 0.66 2 1 C1.67 1.66 1.34 2.32 1 3 C0.9044069 4.66444461 0.87015355 6.33281963 0.875 8 C0.87242187 8.886875 0.86984375 9.77375 0.8671875 10.6875 C0.84872098 13.02676966 0.84872098 13.02676966 2 15 C-1.875 13.25 -1.875 13.25 -3 11 C-3.41527201 6.32818984 -2.69993991 3.82491487 0 0 Z " fill="#47099E" transform="translate(191,86)"/>
<path d="M0 0 C2.25128105 1.76905088 2.94478784 2.67518042 3.43237305 5.54370117 C3.45855713 6.53345947 3.48474121 7.52321777 3.51171875 8.54296875 C3.54716797 9.61611328 3.58261719 10.68925781 3.61914062 11.79492188 C3.64169922 12.91447266 3.66425781 14.03402344 3.6875 15.1875 C3.72166016 16.31865234 3.75582031 17.44980469 3.79101562 18.61523438 C3.87356314 21.4100574 3.94269182 24.20456398 4 27 C3.34 27 2.68 27 2 27 C2 20.07 2 13.14 2 6 C1.34 6 0.68 6 0 6 C0 4.02 0 2.04 0 0 Z " fill="#5409BE" transform="translate(239,30)"/>
<path d="M0 0 C5.875 0.875 5.875 0.875 7 2 C7.08651611 3.41570123 7.10704904 4.835595 7.09765625 6.25390625 C7.09443359 7.10791016 7.09121094 7.96191406 7.08789062 8.84179688 C7.07951172 9.73962891 7.07113281 10.63746094 7.0625 11.5625 C7.05798828 12.46419922 7.05347656 13.36589844 7.04882812 14.29492188 C7.03700225 16.53001314 7.0205222 18.76497437 7 21 C6.67 21 6.34 21 6 21 C6 16.05 6 11.1 6 6 C5.34 6 4.68 6 4 6 C3.71125 5.38125 3.4225 4.7625 3.125 4.125 C2.06279958 1.86674235 2.06279958 1.86674235 0 0 Z " fill="#5708C1" transform="translate(227,34)"/>
<path d="M0 0 C0.99 0 1.98 0 3 0 C1.60485497 4.43909781 -0.47695811 6.98024981 -4 10 C-6.3125 10.8125 -6.3125 10.8125 -8 11 C-7.67 9.68 -7.34 8.36 -7 7 C-5.68 7 -4.36 7 -3 7 C-3 6.01 -3 5.02 -3 4 C-2.01 4 -1.02 4 0 4 C0 2.68 0 1.36 0 0 Z " fill="#4B07AC" transform="translate(198,115)"/>
<path d="M0 0 C6.7353868 2.78705661 10.08035886 5.88298428 14 12 C13.01 12.495 13.01 12.495 12 13 C11.34 12.01 10.68 11.02 10 10 C9.01 9.67 8.02 9.34 7 9 C7 8.01 7 7.02 7 6 C6.030625 5.7525 5.06125 5.505 4.0625 5.25 C3.051875 4.8375 2.04125 4.425 1 4 C0.30859375 1.921875 0.30859375 1.921875 0 0 Z " fill="#450797" transform="translate(229,76)"/>
<path d="M0 0 C1.5625 1.75 1.5625 1.75 3 4 C2.75 6.0625 2.75 6.0625 2 8 C0.9458482 11.16245541 0.68724328 13.86948218 0.4375 17.1875 C0.35371094 18.27417969 0.26992187 19.36085937 0.18359375 20.48046875 C0.12300781 21.31191406 0.06242188 22.14335937 0 23 C-0.33 23 -0.66 23 -1 23 C-1.18451025 7.25512528 -1.18451025 7.25512528 0 0 Z " fill="#3F0890" transform="translate(240,151)"/>
<path d="M0 0 C1.32 0.33 2.64 0.66 4 1 C3.195625 1.763125 2.39125 2.52625 1.5625 3.3125 C-2.09375182 7.59878391 -1.89401963 12.58536645 -2 18 C-2.33 18 -2.66 18 -3 18 C-3 13.05 -3 8.1 -3 3 C-2.01 3 -1.02 3 0 3 C0 2.01 0 1.02 0 0 Z " fill="#5708C4" transform="translate(214,126)"/>
<path d="M0 0 C1.5 1.375 1.5 1.375 3 3 C3 3.66 3 4.32 3 5 C3.66 5 4.32 5 5 5 C5 5.66 5 6.32 5 7 C7.97 7.99 10.94 8.98 14 10 C14 10.33 14 10.66 14 11 C4.73426573 9.77622378 4.73426573 9.77622378 1.8125 6.6875 C0 4 0 4 0 0 Z " fill="#400991" transform="translate(178,143)"/>
<path d="M0 0 C0.66 0 1.32 0 2 0 C0.31326082 4.49797113 -1.81673892 8.72886302 -4 13 C-4.33 13 -4.66 13 -5 13 C-5 10.03 -5 7.06 -5 4 C-3.68 4 -2.36 4 -1 4 C-0.67 2.68 -0.34 1.36 0 0 Z " fill="#4B08AA" transform="translate(175,83)"/>
<path d="M0 0 C0.8971875 0.309375 0.8971875 0.309375 1.8125 0.625 C0.8225 0.955 -0.1675 1.285 -1.1875 1.625 C-2.57869424 3.91358147 -2.57869424 3.91358147 -3.75 6.625 C-5.98326817 11.52288408 -5.98326817 11.52288408 -8.1875 12.625 C-7.76424417 10.82991499 -7.32339265 9.0389717 -6.875 7.25 C-6.63136719 6.25226563 -6.38773437 5.25453125 -6.13671875 4.2265625 C-4.94129656 0.95022019 -3.65139974 -0.62595424 0 0 Z " fill="#440896" transform="translate(302.1875,163.375)"/>
<path d="M0 0 C0.66 0.33 1.32 0.66 2 1 C1.360625 2.0725 0.72125 3.145 0.0625 4.25 C-1.40601273 6.80822182 -2.52854542 9.05340886 -3 12 C-2.01 12.33 -1.02 12.66 0 13 C0 13.99 0 14.98 0 16 C-0.66 16 -1.32 16 -2 16 C-4.46751239 12.29873141 -4.30721156 10.37776468 -4 6 C-3 3.5625 -3 3.5625 -2 2 C-1.34 2 -0.68 2 0 2 C0 1.34 0 0.68 0 0 Z " fill="#3D0781" transform="translate(209,55)"/>
<path d="M0 0 C3.63 0.66 7.26 1.32 11 2 C11 2.33 11 2.66 11 3 C9.98679688 3.19916016 9.98679688 3.19916016 8.953125 3.40234375 C7.61507812 3.66724609 7.61507812 3.66724609 6.25 3.9375 C5.36828125 4.11152344 4.4865625 4.28554688 3.578125 4.46484375 C1.36764947 4.92368488 -0.81512068 5.43336074 -3 6 C-2.01 4.02 -1.02 2.04 0 0 Z " fill="#4E06AB" transform="translate(216,31)"/>
<path d="M0 0 C0.99 0 1.98 0 3 0 C3 0.99 3 1.98 3 3 C3.639375 3.28875 4.27875 3.5775 4.9375 3.875 C7 5 7 5 8 7 C8.99 7.66 9.98 8.32 11 9 C6.60618791 8.49785005 4.16580205 7.07786311 1 4 C0.1875 1.75 0.1875 1.75 0 0 Z " fill="#430797" transform="translate(250,99)"/>
<path d="M0 0 C0 0.66 0 1.32 0 2 C-0.61875 2.061875 -1.2375 2.12375 -1.875 2.1875 C-4.24679221 2.81375226 -4.24679221 2.81375226 -5.125 5.375 C-5.558125 6.674375 -5.558125 6.674375 -6 8 C-6.99 9.485 -6.99 9.485 -8 11 C-8.66 11 -9.32 11 -10 11 C-8.125 6.25 -8.125 6.25 -7 4 C-6.34 4 -5.68 4 -5 4 C-5 3.34 -5 2.68 -5 2 C-2 0 -2 0 0 0 Z " fill="#450797" transform="translate(214,118)"/>
<path d="M0 0 C1.65 0 3.3 0 5 0 C5 0.99 5 1.98 5 3 C5.763125 2.938125 6.52625 2.87625 7.3125 2.8125 C10 3 10 3 11.8125 4.5 C12.204375 4.995 12.59625 5.49 13 6 C7.71862571 5.48474397 4.42778844 3.74522883 0 1 C0 0.67 0 0.34 0 0 Z " fill="#43089C" transform="translate(178,158)"/>
<path d="M0 0 C0.33 0 0.66 0 1 0 C1 3.96 1 7.92 1 12 C0.34 12 -0.32 12 -1 12 C-1 12.66 -1 13.32 -1 14 C-1.99 14 -2.98 14 -4 14 C-2.125 10.125 -2.125 10.125 -1 9 C-0.76807135 7.48530552 -0.58784762 5.96245438 -0.4375 4.4375 C-0.35371094 3.61121094 -0.26992187 2.78492187 -0.18359375 1.93359375 C-0.12300781 1.29550781 -0.06242188 0.65742187 0 0 Z " fill="#310375" transform="translate(171,67)"/>
<path d="M0 0 C1.62992692 0.39695637 3.25392235 0.81832493 4.875 1.25 C6.23238281 1.59804687 6.23238281 1.59804687 7.6171875 1.953125 C10 3 10 3 11.3203125 5.109375 C11.54460937 5.73328125 11.76890625 6.3571875 12 7 C8.80862651 6.36747553 6.48762632 5.24396936 3.75 3.5 C3.04359375 3.0565625 2.3371875 2.613125 1.609375 2.15625 C1.07828125 1.7746875 0.5471875 1.393125 0 1 C0 0.67 0 0.34 0 0 Z " fill="#3C0795" transform="translate(222,83)"/>
<path d="M0 0 C0.66 0 1.32 0 2 0 C2 0.99 2 1.98 2 3 C2.99 3.33 3.98 3.66 5 4 C5 4.99 5 5.98 5 7 C5.66 7 6.32 7 7 7 C7 7.66 7 8.32 7 9 C5.1875 8.875 5.1875 8.875 3 8 C0 2.96428571 0 2.96428571 0 0 Z " fill="#4D08B8" transform="translate(235,59)"/>
<path d="M0 0 C1 3 1 3 -0.25 5.6875 C-0.8275 6.450625 -1.405 7.21375 -2 8 C-2.99 8 -3.98 8 -5 8 C-3.8141763 4.62496331 -2.72426311 2.35277269 0 0 Z " fill="#4E0AA9" transform="translate(255,26)"/>
<path d="M0 0 C5.57142857 5.14285714 5.57142857 5.14285714 6 9 C4.5 7.625 4.5 7.625 3 6 C3 5.34 3 4.68 3 4 C2.195625 3.87625 1.39125 3.7525 0.5625 3.625 C-0.283125 3.41875 -1.12875 3.2125 -2 3 C-2.33 2.34 -2.66 1.68 -3 1 C-2.01 0.67 -1.02 0.34 0 0 Z " fill="#4807A3" transform="translate(212,70)"/>
<path d="M0 0 C0.66 0 1.32 0 2 0 C2 2.31 2 4.62 2 7 C1.01 7 0.02 7 -1 7 C-1.04254356 5.00045254 -1.04080783 2.99958364 -1 1 C-0.67 0.67 -0.34 0.34 0 0 Z " fill="#5006B7" transform="translate(168,97)"/>
<path d="M0 0 C0.33 0.66 0.66 1.32 1 2 C1.66 2 2.32 2 3 2 C3.66 4.31 4.32 6.62 5 9 C4.01 9 3.02 9 2 9 C0.50178941 5.62902617 0 3.79557881 0 0 Z " fill="#5809C2" transform="translate(322,79)"/>
<path d="M0 0 C3.0625 0.3125 3.0625 0.3125 6.0625 3.3125 C2.4325 2.9825 -1.1975 2.6525 -4.9375 2.3125 C-2.9375 0.3125 -2.9375 0.3125 0 0 Z " fill="#440A9E" transform="translate(197.9375,83.6875)"/>
<path d="M0 0 C2.41805039 2.41805039 3.52856112 4.92917103 5 8 C5.33 8.66 5.66 9.32 6 10 C3.525 9.01 3.525 9.01 1 8 C0.67 5.36 0.34 2.72 0 0 Z " fill="#3F0998" transform="translate(170,105)"/>
<path d="M0 0 C3.77545388 1.09068668 6.47043472 1.9083091 9 5 C3.46153846 4.50769231 3.46153846 4.50769231 1.125 1.9375 C0.75375 1.298125 0.3825 0.65875 0 0 Z " fill="#3B0786" transform="translate(299,44)"/>
<path d="M0 0 C0.66 1.32 1.32 2.64 2 4 C2.99 4 3.98 4 5 4 C5.33 5.65 5.66 7.3 6 9 C1.2 5.67692308 1.2 5.67692308 0.1875 2.25 C0.125625 1.5075 0.06375 0.765 0 0 Z " fill="#420795" transform="translate(250,175)"/>
<path d="M0 0 C0.33 1.32 0.66 2.64 1 4 C-0.75 5.5625 -0.75 5.5625 -3 7 C-5.25 6.6875 -5.25 6.6875 -7 6 C-6.21625 5.566875 -5.4325 5.13375 -4.625 4.6875 C-1.78301625 3.10779753 -1.78301625 3.10779753 0 0 Z " fill="#440693" transform="translate(318,110)"/>
<path d="M0 0 C0 0.33 0 0.66 0 1 C-7.42857143 3.14285714 -7.42857143 3.14285714 -11 4 C-10.67 3.01 -10.34 2.02 -10 1 C-6.78548731 -0.60725635 -3.56387464 -0.05748185 0 0 Z " fill="#4C0CA6" transform="translate(261,115)"/>
<path d="M0 0 C-0.8125 1.9375 -0.8125 1.9375 -2 4 C-2.99 4.33 -3.98 4.66 -5 5 C-5 3.68 -5 2.36 -5 1 C-3 0 -3 0 0 0 Z " fill="#5608C8" transform="translate(184,50)"/>
</svg>
